<mxfile host="app.diagrams.net" modified="2021-11-10T09:44:24.855Z" agent="5.0 (Windows NT 10.0; Win64; x64) AppleWebKit/537.36 (KHTML, like Gecko) Chrome/95.0.4638.69 Safari/537.36" etag="IxoE2Qnx7xvmWbV0tl98" version="15.7.1" type="github" pages="3">
  <diagram id="dyYI4IhcysV5-UfgchyA" name="Page-1">
    <mxGraphModel dx="1422" dy="754" grid="1" gridSize="10" guides="1" tooltips="1" connect="1" arrows="1" fold="1" page="1" pageScale="1" pageWidth="850" pageHeight="1100" math="0" shadow="0">
      <root>
        <mxCell id="0" />
        <mxCell id="1" parent="0" />
        <mxCell id="_AqY-l71FvzXE_T0jzej-1" value="Skill" style="swimlane;fontStyle=0;childLayout=stackLayout;horizontal=1;startSize=26;horizontalStack=0;resizeParent=1;resizeParentMax=0;resizeLast=0;collapsible=1;marginBottom=0;align=center;fontSize=14;" parent="1" vertex="1">
          <mxGeometry x="40" y="40" width="160" height="116" as="geometry" />
        </mxCell>
        <mxCell id="_AqY-l71FvzXE_T0jzej-2" value="skillId {PK}" style="text;strokeColor=none;fillColor=none;spacingLeft=4;spacingRight=4;overflow=hidden;rotatable=0;points=[[0,0.5],[1,0.5]];portConstraint=eastwest;fontSize=12;" parent="_AqY-l71FvzXE_T0jzej-1" vertex="1">
          <mxGeometry y="26" width="160" height="30" as="geometry" />
        </mxCell>
        <mxCell id="_AqY-l71FvzXE_T0jzej-3" value="skillNameÂ " style="text;strokeColor=none;fillColor=none;spacingLeft=4;spacingRight=4;overflow=hidden;rotatable=0;points=[[0,0.5],[1,0.5]];portConstraint=eastwest;fontSize=12;" parent="_AqY-l71FvzXE_T0jzej-1" vertex="1">
          <mxGeometry y="56" width="160" height="30" as="geometry" />
        </mxCell>
        <mxCell id="_AqY-l71FvzXE_T0jzej-4" value="SkillType" style="text;strokeColor=none;fillColor=none;spacingLeft=4;spacingRight=4;overflow=hidden;rotatable=0;points=[[0,0.5],[1,0.5]];portConstraint=eastwest;fontSize=12;" parent="_AqY-l71FvzXE_T0jzej-1" vertex="1">
          <mxGeometry y="86" width="160" height="30" as="geometry" />
        </mxCell>
        <mxCell id="_AqY-l71FvzXE_T0jzej-5" value="Project" style="swimlane;fontStyle=0;childLayout=stackLayout;horizontal=1;startSize=26;horizontalStack=0;resizeParent=1;resizeParentMax=0;resizeLast=0;collapsible=1;marginBottom=0;align=center;fontSize=14;" parent="1" vertex="1">
          <mxGeometry x="842" y="40" width="160" height="116" as="geometry" />
        </mxCell>
        <mxCell id="_AqY-l71FvzXE_T0jzej-6" value="projectId {PK}" style="text;strokeColor=none;fillColor=none;spacingLeft=4;spacingRight=4;overflow=hidden;rotatable=0;points=[[0,0.5],[1,0.5]];portConstraint=eastwest;fontSize=12;" parent="_AqY-l71FvzXE_T0jzej-5" vertex="1">
          <mxGeometry y="26" width="160" height="30" as="geometry" />
        </mxCell>
        <mxCell id="_AqY-l71FvzXE_T0jzej-7" value="projectName" style="text;strokeColor=none;fillColor=none;spacingLeft=4;spacingRight=4;overflow=hidden;rotatable=0;points=[[0,0.5],[1,0.5]];portConstraint=eastwest;fontSize=12;" parent="_AqY-l71FvzXE_T0jzej-5" vertex="1">
          <mxGeometry y="56" width="160" height="30" as="geometry" />
        </mxCell>
        <mxCell id="_AqY-l71FvzXE_T0jzej-8" value="solutionId {FK}" style="text;strokeColor=none;fillColor=none;spacingLeft=4;spacingRight=4;overflow=hidden;rotatable=0;points=[[0,0.5],[1,0.5]];portConstraint=eastwest;fontSize=12;" parent="_AqY-l71FvzXE_T0jzej-5" vertex="1">
          <mxGeometry y="86" width="160" height="30" as="geometry" />
        </mxCell>
        <mxCell id="_AqY-l71FvzXE_T0jzej-9" value="client" style="swimlane;fontStyle=0;childLayout=stackLayout;horizontal=1;startSize=26;horizontalStack=0;resizeParent=1;resizeParentMax=0;resizeLast=0;collapsible=1;marginBottom=0;align=center;fontSize=14;" parent="1" vertex="1">
          <mxGeometry x="1156" y="40" width="160" height="116" as="geometry" />
        </mxCell>
        <mxCell id="_AqY-l71FvzXE_T0jzej-89" value="clientId {PK}" style="text;strokeColor=none;fillColor=none;spacingLeft=4;spacingRight=4;overflow=hidden;rotatable=0;points=[[0,0.5],[1,0.5]];portConstraint=eastwest;fontSize=12;" parent="_AqY-l71FvzXE_T0jzej-9" vertex="1">
          <mxGeometry y="26" width="160" height="30" as="geometry" />
        </mxCell>
        <mxCell id="_AqY-l71FvzXE_T0jzej-10" value="clientId {PK}" style="text;strokeColor=none;fillColor=none;spacingLeft=4;spacingRight=4;overflow=hidden;rotatable=0;points=[[0,0.5],[1,0.5]];portConstraint=eastwest;fontSize=12;" parent="_AqY-l71FvzXE_T0jzej-9" vertex="1">
          <mxGeometry y="56" width="160" height="30" as="geometry" />
        </mxCell>
        <mxCell id="_AqY-l71FvzXE_T0jzej-90" value="clientId {PK}" style="text;strokeColor=none;fillColor=none;spacingLeft=4;spacingRight=4;overflow=hidden;rotatable=0;points=[[0,0.5],[1,0.5]];portConstraint=eastwest;fontSize=12;" parent="_AqY-l71FvzXE_T0jzej-9" vertex="1">
          <mxGeometry y="86" width="160" height="30" as="geometry" />
        </mxCell>
        <mxCell id="_AqY-l71FvzXE_T0jzej-30" style="edgeStyle=orthogonalEdgeStyle;rounded=0;orthogonalLoop=1;jettySize=auto;html=1;endArrow=none;endFill=0;" parent="1" source="_AqY-l71FvzXE_T0jzej-15" target="_AqY-l71FvzXE_T0jzej-9" edge="1">
          <mxGeometry relative="1" as="geometry" />
        </mxCell>
        <mxCell id="_AqY-l71FvzXE_T0jzej-15" value="Client" style="swimlane;fontStyle=0;childLayout=stackLayout;horizontal=1;startSize=26;horizontalStack=0;resizeParent=1;resizeParentMax=0;resizeLast=0;collapsible=1;marginBottom=0;align=center;fontSize=14;" parent="1" vertex="1">
          <mxGeometry x="1156" y="360" width="160" height="116" as="geometry" />
        </mxCell>
        <mxCell id="_AqY-l71FvzXE_T0jzej-16" value="clientId {PK}" style="text;strokeColor=none;fillColor=none;spacingLeft=4;spacingRight=4;overflow=hidden;rotatable=0;points=[[0,0.5],[1,0.5]];portConstraint=eastwest;fontSize=12;" parent="_AqY-l71FvzXE_T0jzej-15" vertex="1">
          <mxGeometry y="26" width="160" height="30" as="geometry" />
        </mxCell>
        <mxCell id="_AqY-l71FvzXE_T0jzej-17" value="clientName" style="text;strokeColor=none;fillColor=none;spacingLeft=4;spacingRight=4;overflow=hidden;rotatable=0;points=[[0,0.5],[1,0.5]];portConstraint=eastwest;fontSize=12;" parent="_AqY-l71FvzXE_T0jzej-15" vertex="1">
          <mxGeometry y="56" width="160" height="30" as="geometry" />
        </mxCell>
        <mxCell id="_AqY-l71FvzXE_T0jzej-18" value="Item 3" style="text;strokeColor=none;fillColor=none;spacingLeft=4;spacingRight=4;overflow=hidden;rotatable=0;points=[[0,0.5],[1,0.5]];portConstraint=eastwest;fontSize=12;" parent="_AqY-l71FvzXE_T0jzej-15" vertex="1">
          <mxGeometry y="86" width="160" height="30" as="geometry" />
        </mxCell>
        <mxCell id="_AqY-l71FvzXE_T0jzej-19" value="Staff" style="swimlane;fontStyle=0;childLayout=stackLayout;horizontal=1;startSize=26;horizontalStack=0;resizeParent=1;resizeParentMax=0;resizeLast=0;collapsible=1;marginBottom=0;align=center;fontSize=14;" parent="1" vertex="1">
          <mxGeometry x="456" y="350" width="160" height="116" as="geometry" />
        </mxCell>
        <mxCell id="_AqY-l71FvzXE_T0jzej-20" value="staffId {PK}" style="text;strokeColor=none;fillColor=none;spacingLeft=4;spacingRight=4;overflow=hidden;rotatable=0;points=[[0,0.5],[1,0.5]];portConstraint=eastwest;fontSize=12;" parent="_AqY-l71FvzXE_T0jzej-19" vertex="1">
          <mxGeometry y="26" width="160" height="30" as="geometry" />
        </mxCell>
        <mxCell id="_AqY-l71FvzXE_T0jzej-21" value="staffName" style="text;strokeColor=none;fillColor=none;spacingLeft=4;spacingRight=4;overflow=hidden;rotatable=0;points=[[0,0.5],[1,0.5]];portConstraint=eastwest;fontSize=12;" parent="_AqY-l71FvzXE_T0jzej-19" vertex="1">
          <mxGeometry y="56" width="160" height="30" as="geometry" />
        </mxCell>
        <mxCell id="_AqY-l71FvzXE_T0jzej-22" value="Item 3" style="text;strokeColor=none;fillColor=none;spacingLeft=4;spacingRight=4;overflow=hidden;rotatable=0;points=[[0,0.5],[1,0.5]];portConstraint=eastwest;fontSize=12;" parent="_AqY-l71FvzXE_T0jzej-19" vertex="1">
          <mxGeometry y="86" width="160" height="30" as="geometry" />
        </mxCell>
        <mxCell id="_AqY-l71FvzXE_T0jzej-25" style="edgeStyle=orthogonalEdgeStyle;rounded=0;orthogonalLoop=1;jettySize=auto;html=1;entryX=-0.006;entryY=0.067;entryDx=0;entryDy=0;entryPerimeter=0;endArrow=none;endFill=0;" parent="1" target="_AqY-l71FvzXE_T0jzej-7" edge="1">
          <mxGeometry relative="1" as="geometry">
            <mxPoint x="616" y="98" as="sourcePoint" />
          </mxGeometry>
        </mxCell>
        <mxCell id="_AqY-l71FvzXE_T0jzej-26" style="edgeStyle=orthogonalEdgeStyle;rounded=0;orthogonalLoop=1;jettySize=auto;html=1;entryX=0.5;entryY=0;entryDx=0;entryDy=0;endArrow=none;endFill=0;exitX=0.495;exitY=0.994;exitDx=0;exitDy=0;exitPerimeter=0;" parent="1" source="_AqY-l71FvzXE_T0jzej-61" target="_AqY-l71FvzXE_T0jzej-19" edge="1">
          <mxGeometry relative="1" as="geometry">
            <mxPoint x="536" y="138" as="sourcePoint" />
          </mxGeometry>
        </mxCell>
        <mxCell id="_AqY-l71FvzXE_T0jzej-29" style="edgeStyle=orthogonalEdgeStyle;rounded=0;orthogonalLoop=1;jettySize=auto;html=1;endArrow=none;endFill=0;" parent="1" source="_AqY-l71FvzXE_T0jzej-7" edge="1">
          <mxGeometry relative="1" as="geometry">
            <mxPoint x="1156" y="111" as="targetPoint" />
          </mxGeometry>
        </mxCell>
        <mxCell id="_AqY-l71FvzXE_T0jzej-38" value="" style="group" parent="1" vertex="1" connectable="0">
          <mxGeometry x="1052" y="80" width="80" height="30" as="geometry" />
        </mxCell>
        <mxCell id="_AqY-l71FvzXE_T0jzej-39" value="is for" style="text;html=1;strokeColor=none;fillColor=none;align=center;verticalAlign=middle;whiteSpace=wrap;rounded=0;" parent="_AqY-l71FvzXE_T0jzej-38" vertex="1">
          <mxGeometry width="60" height="30" as="geometry" />
        </mxCell>
        <mxCell id="_AqY-l71FvzXE_T0jzej-40" value="" style="triangle;whiteSpace=wrap;html=1;fillColor=#000000;" parent="_AqY-l71FvzXE_T0jzej-38" vertex="1">
          <mxGeometry x="61" y="6" width="20" height="20" as="geometry" />
        </mxCell>
        <mxCell id="_AqY-l71FvzXE_T0jzej-41" value="" style="group" parent="1" vertex="1" connectable="0">
          <mxGeometry x="1174" y="240" width="80" height="30" as="geometry" />
        </mxCell>
        <mxCell id="_AqY-l71FvzXE_T0jzej-42" value="requires" style="text;html=1;strokeColor=none;fillColor=none;align=center;verticalAlign=middle;whiteSpace=wrap;rounded=0;" parent="_AqY-l71FvzXE_T0jzej-41" vertex="1">
          <mxGeometry width="60" height="30" as="geometry" />
        </mxCell>
        <mxCell id="_AqY-l71FvzXE_T0jzej-43" value="" style="triangle;whiteSpace=wrap;html=1;fillColor=#000000;direction=north;" parent="1" vertex="1">
          <mxGeometry x="1194" y="220" width="20" height="20" as="geometry" />
        </mxCell>
        <mxCell id="_AqY-l71FvzXE_T0jzej-44" value="1..*" style="text;html=1;strokeColor=none;fillColor=none;align=center;verticalAlign=middle;whiteSpace=wrap;rounded=0;" parent="1" vertex="1">
          <mxGeometry x="200" y="113" width="60" height="30" as="geometry" />
        </mxCell>
        <mxCell id="_AqY-l71FvzXE_T0jzej-45" value="1..*" style="text;html=1;strokeColor=none;fillColor=none;align=center;verticalAlign=middle;whiteSpace=wrap;rounded=0;" parent="1" vertex="1">
          <mxGeometry x="782" y="99" width="60" height="30" as="geometry" />
        </mxCell>
        <mxCell id="_AqY-l71FvzXE_T0jzej-48" value="1..*" style="text;html=1;strokeColor=none;fillColor=none;align=center;verticalAlign=middle;whiteSpace=wrap;rounded=0;" parent="1" vertex="1">
          <mxGeometry x="31" y="156" width="60" height="30" as="geometry" />
        </mxCell>
        <mxCell id="_AqY-l71FvzXE_T0jzej-49" value="1..*" style="text;html=1;strokeColor=none;fillColor=none;align=center;verticalAlign=middle;whiteSpace=wrap;rounded=0;" parent="1" vertex="1">
          <mxGeometry x="476" y="320" width="60" height="30" as="geometry" />
        </mxCell>
        <mxCell id="_AqY-l71FvzXE_T0jzej-50" value="1..*" style="text;html=1;strokeColor=none;fillColor=none;align=center;verticalAlign=middle;whiteSpace=wrap;rounded=0;" parent="1" vertex="1">
          <mxGeometry x="616" y="420" width="60" height="30" as="geometry" />
        </mxCell>
        <mxCell id="_AqY-l71FvzXE_T0jzej-51" value="1..1" style="text;html=1;strokeColor=none;fillColor=none;align=center;verticalAlign=middle;whiteSpace=wrap;rounded=0;" parent="1" vertex="1">
          <mxGeometry x="862" y="160" width="60" height="30" as="geometry" />
        </mxCell>
        <mxCell id="_AqY-l71FvzXE_T0jzej-52" value="0..*" style="text;html=1;strokeColor=none;fillColor=none;align=center;verticalAlign=middle;whiteSpace=wrap;rounded=0;" parent="1" vertex="1">
          <mxGeometry x="395" y="440" width="60" height="30" as="geometry" />
        </mxCell>
        <mxCell id="_AqY-l71FvzXE_T0jzej-53" value="0..*" style="text;html=1;strokeColor=none;fillColor=none;align=center;verticalAlign=middle;whiteSpace=wrap;rounded=0;" parent="1" vertex="1">
          <mxGeometry x="1236" y="156" width="60" height="30" as="geometry" />
        </mxCell>
        <mxCell id="_AqY-l71FvzXE_T0jzej-54" value="1..1" style="text;html=1;strokeColor=none;fillColor=none;align=center;verticalAlign=middle;whiteSpace=wrap;rounded=0;" parent="1" vertex="1">
          <mxGeometry x="1236" y="330" width="60" height="30" as="geometry" />
        </mxCell>
        <mxCell id="_AqY-l71FvzXE_T0jzej-55" value="1..1" style="text;html=1;strokeColor=none;fillColor=none;align=center;verticalAlign=middle;whiteSpace=wrap;rounded=0;" parent="1" vertex="1">
          <mxGeometry x="1002" y="110" width="60" height="30" as="geometry" />
        </mxCell>
        <mxCell id="_AqY-l71FvzXE_T0jzej-57" value="1..1" style="text;html=1;strokeColor=none;fillColor=none;align=center;verticalAlign=middle;whiteSpace=wrap;rounded=0;" parent="1" vertex="1">
          <mxGeometry x="1096" y="110" width="60" height="30" as="geometry" />
        </mxCell>
        <mxCell id="_AqY-l71FvzXE_T0jzej-58" value="Usage" style="swimlane;fontStyle=0;childLayout=stackLayout;horizontal=1;startSize=26;horizontalStack=0;resizeParent=1;resizeParentMax=0;resizeLast=0;collapsible=1;marginBottom=0;align=center;fontSize=14;" parent="1" vertex="1">
          <mxGeometry x="456" y="40" width="160" height="116" as="geometry" />
        </mxCell>
        <mxCell id="_AqY-l71FvzXE_T0jzej-59" value="(skillId {FK}" style="text;strokeColor=none;fillColor=none;spacingLeft=4;spacingRight=4;overflow=hidden;rotatable=0;points=[[0,0.5],[1,0.5]];portConstraint=eastwest;fontSize=12;" parent="_AqY-l71FvzXE_T0jzej-58" vertex="1">
          <mxGeometry y="26" width="160" height="30" as="geometry" />
        </mxCell>
        <mxCell id="_AqY-l71FvzXE_T0jzej-60" value="projectId {FK}" style="text;strokeColor=none;fillColor=none;spacingLeft=4;spacingRight=4;overflow=hidden;rotatable=0;points=[[0,0.5],[1,0.5]];portConstraint=eastwest;fontSize=12;" parent="_AqY-l71FvzXE_T0jzej-58" vertex="1">
          <mxGeometry y="56" width="160" height="30" as="geometry" />
        </mxCell>
        <mxCell id="_AqY-l71FvzXE_T0jzej-61" value="StaffIf {FK} ) {PK}" style="text;strokeColor=none;fillColor=none;spacingLeft=4;spacingRight=4;overflow=hidden;rotatable=0;points=[[0,0.5],[1,0.5]];portConstraint=eastwest;fontSize=12;" parent="_AqY-l71FvzXE_T0jzej-58" vertex="1">
          <mxGeometry y="86" width="160" height="30" as="geometry" />
        </mxCell>
        <mxCell id="_AqY-l71FvzXE_T0jzej-65" style="edgeStyle=orthogonalEdgeStyle;rounded=0;orthogonalLoop=1;jettySize=auto;html=1;entryX=0;entryY=0.5;entryDx=0;entryDy=0;endArrow=none;endFill=0;" parent="1" source="_AqY-l71FvzXE_T0jzej-3" target="_AqY-l71FvzXE_T0jzej-60" edge="1">
          <mxGeometry relative="1" as="geometry" />
        </mxCell>
        <mxCell id="_AqY-l71FvzXE_T0jzej-66" value="0..*" style="text;html=1;strokeColor=none;fillColor=none;align=center;verticalAlign=middle;whiteSpace=wrap;rounded=0;" parent="1" vertex="1">
          <mxGeometry x="396" y="114" width="60" height="30" as="geometry" />
        </mxCell>
        <mxCell id="_AqY-l71FvzXE_T0jzej-67" value="0..*" style="text;html=1;strokeColor=none;fillColor=none;align=center;verticalAlign=middle;whiteSpace=wrap;rounded=0;" parent="1" vertex="1">
          <mxGeometry x="616" y="99" width="60" height="30" as="geometry" />
        </mxCell>
        <mxCell id="_AqY-l71FvzXE_T0jzej-68" value="0..*" style="text;html=1;strokeColor=none;fillColor=none;align=center;verticalAlign=middle;whiteSpace=wrap;rounded=0;" parent="1" vertex="1">
          <mxGeometry x="476" y="156" width="60" height="30" as="geometry" />
        </mxCell>
        <mxCell id="_AqY-l71FvzXE_T0jzej-74" style="edgeStyle=orthogonalEdgeStyle;rounded=0;orthogonalLoop=1;jettySize=auto;html=1;endArrow=none;endFill=0;" parent="1" source="_AqY-l71FvzXE_T0jzej-69" target="_AqY-l71FvzXE_T0jzej-1" edge="1">
          <mxGeometry relative="1" as="geometry" />
        </mxCell>
        <mxCell id="_AqY-l71FvzXE_T0jzej-69" value="Staff" style="swimlane;fontStyle=0;childLayout=stackLayout;horizontal=1;startSize=26;horizontalStack=0;resizeParent=1;resizeParentMax=0;resizeLast=0;collapsible=1;marginBottom=0;align=center;fontSize=14;" parent="1" vertex="1">
          <mxGeometry x="40" y="350" width="160" height="116" as="geometry" />
        </mxCell>
        <mxCell id="_AqY-l71FvzXE_T0jzej-70" value="staffId {PK}" style="text;strokeColor=none;fillColor=none;spacingLeft=4;spacingRight=4;overflow=hidden;rotatable=0;points=[[0,0.5],[1,0.5]];portConstraint=eastwest;fontSize=12;" parent="_AqY-l71FvzXE_T0jzej-69" vertex="1">
          <mxGeometry y="26" width="160" height="30" as="geometry" />
        </mxCell>
        <mxCell id="_AqY-l71FvzXE_T0jzej-71" value="skillId {KF}" style="text;strokeColor=none;fillColor=none;spacingLeft=4;spacingRight=4;overflow=hidden;rotatable=0;points=[[0,0.5],[1,0.5]];portConstraint=eastwest;fontSize=12;" parent="_AqY-l71FvzXE_T0jzej-69" vertex="1">
          <mxGeometry y="56" width="160" height="30" as="geometry" />
        </mxCell>
        <mxCell id="_AqY-l71FvzXE_T0jzej-72" value="Item 3" style="text;strokeColor=none;fillColor=none;spacingLeft=4;spacingRight=4;overflow=hidden;rotatable=0;points=[[0,0.5],[1,0.5]];portConstraint=eastwest;fontSize=12;" parent="_AqY-l71FvzXE_T0jzej-69" vertex="1">
          <mxGeometry y="86" width="160" height="30" as="geometry" />
        </mxCell>
        <mxCell id="_AqY-l71FvzXE_T0jzej-77" style="edgeStyle=orthogonalEdgeStyle;rounded=0;orthogonalLoop=1;jettySize=auto;html=1;entryX=0;entryY=0.5;entryDx=0;entryDy=0;endArrow=none;endFill=0;" parent="1" source="_AqY-l71FvzXE_T0jzej-71" target="_AqY-l71FvzXE_T0jzej-21" edge="1">
          <mxGeometry relative="1" as="geometry" />
        </mxCell>
        <mxCell id="_AqY-l71FvzXE_T0jzej-78" value="0..*" style="text;html=1;strokeColor=none;fillColor=none;align=center;verticalAlign=middle;whiteSpace=wrap;rounded=0;" parent="1" vertex="1">
          <mxGeometry x="60" y="320" width="60" height="30" as="geometry" />
        </mxCell>
        <mxCell id="_AqY-l71FvzXE_T0jzej-79" value="1..*" style="text;html=1;strokeColor=none;fillColor=none;align=center;verticalAlign=middle;whiteSpace=wrap;rounded=0;" parent="1" vertex="1">
          <mxGeometry x="200" y="420" width="60" height="30" as="geometry" />
        </mxCell>
        <mxCell id="_AqY-l71FvzXE_T0jzej-86" style="edgeStyle=orthogonalEdgeStyle;rounded=0;orthogonalLoop=1;jettySize=auto;html=1;endArrow=none;endFill=0;" parent="1" source="_AqY-l71FvzXE_T0jzej-80" target="_AqY-l71FvzXE_T0jzej-5" edge="1">
          <mxGeometry relative="1" as="geometry" />
        </mxCell>
        <mxCell id="_AqY-l71FvzXE_T0jzej-80" value="Client" style="swimlane;fontStyle=0;childLayout=stackLayout;horizontal=1;startSize=26;horizontalStack=0;resizeParent=1;resizeParentMax=0;resizeLast=0;collapsible=1;marginBottom=0;align=center;fontSize=14;" parent="1" vertex="1">
          <mxGeometry x="842" y="350" width="160" height="116" as="geometry" />
        </mxCell>
        <mxCell id="_AqY-l71FvzXE_T0jzej-81" value="projectId {FK}" style="text;strokeColor=none;fillColor=none;spacingLeft=4;spacingRight=4;overflow=hidden;rotatable=0;points=[[0,0.5],[1,0.5]];portConstraint=eastwest;fontSize=12;" parent="_AqY-l71FvzXE_T0jzej-80" vertex="1">
          <mxGeometry y="26" width="160" height="30" as="geometry" />
        </mxCell>
        <mxCell id="_AqY-l71FvzXE_T0jzej-82" value="staffId {FK}" style="text;strokeColor=none;fillColor=none;spacingLeft=4;spacingRight=4;overflow=hidden;rotatable=0;points=[[0,0.5],[1,0.5]];portConstraint=eastwest;fontSize=12;" parent="_AqY-l71FvzXE_T0jzej-80" vertex="1">
          <mxGeometry y="56" width="160" height="30" as="geometry" />
        </mxCell>
        <mxCell id="_AqY-l71FvzXE_T0jzej-83" value="Item 3" style="text;strokeColor=none;fillColor=none;spacingLeft=4;spacingRight=4;overflow=hidden;rotatable=0;points=[[0,0.5],[1,0.5]];portConstraint=eastwest;fontSize=12;" parent="_AqY-l71FvzXE_T0jzej-80" vertex="1">
          <mxGeometry y="86" width="160" height="30" as="geometry" />
        </mxCell>
        <mxCell id="_AqY-l71FvzXE_T0jzej-85" style="edgeStyle=orthogonalEdgeStyle;rounded=0;orthogonalLoop=1;jettySize=auto;html=1;endArrow=none;endFill=0;" parent="1" source="_AqY-l71FvzXE_T0jzej-82" target="_AqY-l71FvzXE_T0jzej-21" edge="1">
          <mxGeometry relative="1" as="geometry" />
        </mxCell>
        <mxCell id="_AqY-l71FvzXE_T0jzej-87" value="0..*" style="text;html=1;strokeColor=none;fillColor=none;align=center;verticalAlign=middle;whiteSpace=wrap;rounded=0;" parent="1" vertex="1">
          <mxGeometry x="790" y="420" width="60" height="30" as="geometry" />
        </mxCell>
        <mxCell id="_AqY-l71FvzXE_T0jzej-88" value="1..*" style="text;html=1;strokeColor=none;fillColor=none;align=center;verticalAlign=middle;whiteSpace=wrap;rounded=0;" parent="1" vertex="1">
          <mxGeometry x="862" y="320" width="60" height="30" as="geometry" />
        </mxCell>
      </root>
    </mxGraphModel>
  </diagram>
  <diagram id="4YWx2qeDkY35ttKxFzG-" name="Redo">
    <mxGraphModel dx="1422" dy="754" grid="1" gridSize="10" guides="1" tooltips="1" connect="1" arrows="1" fold="1" page="1" pageScale="1" pageWidth="850" pageHeight="1100" math="0" shadow="0">
      <root>
        <mxCell id="eu17OFbI0xMFM1NlKL8W-0" />
        <mxCell id="eu17OFbI0xMFM1NlKL8W-1" parent="eu17OFbI0xMFM1NlKL8W-0" />
        <mxCell id="nUdfGJJ9g9PxCED3hr_a-0" value="Skill" style="swimlane;fontStyle=0;childLayout=stackLayout;horizontal=1;startSize=26;horizontalStack=0;resizeParent=1;resizeParentMax=0;resizeLast=0;collapsible=1;marginBottom=0;align=center;fontSize=14;" parent="eu17OFbI0xMFM1NlKL8W-1" vertex="1">
          <mxGeometry x="40" y="40" width="160" height="116" as="geometry" />
        </mxCell>
        <mxCell id="nUdfGJJ9g9PxCED3hr_a-1" value="Item 1" style="text;strokeColor=none;fillColor=none;spacingLeft=4;spacingRight=4;overflow=hidden;rotatable=0;points=[[0,0.5],[1,0.5]];portConstraint=eastwest;fontSize=12;" parent="nUdfGJJ9g9PxCED3hr_a-0" vertex="1">
          <mxGeometry y="26" width="160" height="30" as="geometry" />
        </mxCell>
        <mxCell id="nUdfGJJ9g9PxCED3hr_a-2" value="Item 2" style="text;strokeColor=none;fillColor=none;spacingLeft=4;spacingRight=4;overflow=hidden;rotatable=0;points=[[0,0.5],[1,0.5]];portConstraint=eastwest;fontSize=12;" parent="nUdfGJJ9g9PxCED3hr_a-0" vertex="1">
          <mxGeometry y="56" width="160" height="30" as="geometry" />
        </mxCell>
        <mxCell id="nUdfGJJ9g9PxCED3hr_a-3" value="Item 3" style="text;strokeColor=none;fillColor=none;spacingLeft=4;spacingRight=4;overflow=hidden;rotatable=0;points=[[0,0.5],[1,0.5]];portConstraint=eastwest;fontSize=12;" parent="nUdfGJJ9g9PxCED3hr_a-0" vertex="1">
          <mxGeometry y="86" width="160" height="30" as="geometry" />
        </mxCell>
        <mxCell id="nUdfGJJ9g9PxCED3hr_a-4" value="Project" style="swimlane;fontStyle=0;childLayout=stackLayout;horizontal=1;startSize=26;horizontalStack=0;resizeParent=1;resizeParentMax=0;resizeLast=0;collapsible=1;marginBottom=0;align=center;fontSize=14;" parent="eu17OFbI0xMFM1NlKL8W-1" vertex="1">
          <mxGeometry x="600" y="41" width="160" height="116" as="geometry" />
        </mxCell>
        <mxCell id="nUdfGJJ9g9PxCED3hr_a-5" value="Item 1" style="text;strokeColor=none;fillColor=none;spacingLeft=4;spacingRight=4;overflow=hidden;rotatable=0;points=[[0,0.5],[1,0.5]];portConstraint=eastwest;fontSize=12;" parent="nUdfGJJ9g9PxCED3hr_a-4" vertex="1">
          <mxGeometry y="26" width="160" height="30" as="geometry" />
        </mxCell>
        <mxCell id="nUdfGJJ9g9PxCED3hr_a-6" value="Item 2" style="text;strokeColor=none;fillColor=none;spacingLeft=4;spacingRight=4;overflow=hidden;rotatable=0;points=[[0,0.5],[1,0.5]];portConstraint=eastwest;fontSize=12;" parent="nUdfGJJ9g9PxCED3hr_a-4" vertex="1">
          <mxGeometry y="56" width="160" height="30" as="geometry" />
        </mxCell>
        <mxCell id="nUdfGJJ9g9PxCED3hr_a-7" value="Item 3" style="text;strokeColor=none;fillColor=none;spacingLeft=4;spacingRight=4;overflow=hidden;rotatable=0;points=[[0,0.5],[1,0.5]];portConstraint=eastwest;fontSize=12;" parent="nUdfGJJ9g9PxCED3hr_a-4" vertex="1">
          <mxGeometry y="86" width="160" height="30" as="geometry" />
        </mxCell>
        <mxCell id="LEk70T61aPjq_oQh3dpa-16" style="edgeStyle=orthogonalEdgeStyle;rounded=0;orthogonalLoop=1;jettySize=auto;html=1;entryX=0.5;entryY=0;entryDx=0;entryDy=0;endArrow=none;endFill=0;" parent="eu17OFbI0xMFM1NlKL8W-1" source="nUdfGJJ9g9PxCED3hr_a-8" target="LEk70T61aPjq_oQh3dpa-4" edge="1">
          <mxGeometry relative="1" as="geometry" />
        </mxCell>
        <mxCell id="nUdfGJJ9g9PxCED3hr_a-8" value="Solution" style="swimlane;fontStyle=0;childLayout=stackLayout;horizontal=1;startSize=26;horizontalStack=0;resizeParent=1;resizeParentMax=0;resizeLast=0;collapsible=1;marginBottom=0;align=center;fontSize=14;" parent="eu17OFbI0xMFM1NlKL8W-1" vertex="1">
          <mxGeometry x="1030" y="41" width="160" height="116" as="geometry" />
        </mxCell>
        <mxCell id="nUdfGJJ9g9PxCED3hr_a-9" value="Item 1" style="text;strokeColor=none;fillColor=none;spacingLeft=4;spacingRight=4;overflow=hidden;rotatable=0;points=[[0,0.5],[1,0.5]];portConstraint=eastwest;fontSize=12;" parent="nUdfGJJ9g9PxCED3hr_a-8" vertex="1">
          <mxGeometry y="26" width="160" height="30" as="geometry" />
        </mxCell>
        <mxCell id="nUdfGJJ9g9PxCED3hr_a-10" value="Item 2" style="text;strokeColor=none;fillColor=none;spacingLeft=4;spacingRight=4;overflow=hidden;rotatable=0;points=[[0,0.5],[1,0.5]];portConstraint=eastwest;fontSize=12;" parent="nUdfGJJ9g9PxCED3hr_a-8" vertex="1">
          <mxGeometry y="56" width="160" height="30" as="geometry" />
        </mxCell>
        <mxCell id="nUdfGJJ9g9PxCED3hr_a-11" value="Item 3" style="text;strokeColor=none;fillColor=none;spacingLeft=4;spacingRight=4;overflow=hidden;rotatable=0;points=[[0,0.5],[1,0.5]];portConstraint=eastwest;fontSize=12;" parent="nUdfGJJ9g9PxCED3hr_a-8" vertex="1">
          <mxGeometry y="86" width="160" height="30" as="geometry" />
        </mxCell>
        <mxCell id="LEk70T61aPjq_oQh3dpa-13" style="edgeStyle=orthogonalEdgeStyle;rounded=0;orthogonalLoop=1;jettySize=auto;html=1;endArrow=none;endFill=0;" parent="eu17OFbI0xMFM1NlKL8W-1" source="LEk70T61aPjq_oQh3dpa-0" target="LEk70T61aPjq_oQh3dpa-8" edge="1">
          <mxGeometry relative="1" as="geometry" />
        </mxCell>
        <mxCell id="LEk70T61aPjq_oQh3dpa-0" value="Staff" style="swimlane;fontStyle=0;childLayout=stackLayout;horizontal=1;startSize=26;horizontalStack=0;resizeParent=1;resizeParentMax=0;resizeLast=0;collapsible=1;marginBottom=0;align=center;fontSize=14;" parent="eu17OFbI0xMFM1NlKL8W-1" vertex="1">
          <mxGeometry x="320" y="320" width="160" height="116" as="geometry" />
        </mxCell>
        <mxCell id="LEk70T61aPjq_oQh3dpa-1" value="Item 1" style="text;strokeColor=none;fillColor=none;spacingLeft=4;spacingRight=4;overflow=hidden;rotatable=0;points=[[0,0.5],[1,0.5]];portConstraint=eastwest;fontSize=12;" parent="LEk70T61aPjq_oQh3dpa-0" vertex="1">
          <mxGeometry y="26" width="160" height="30" as="geometry" />
        </mxCell>
        <mxCell id="LEk70T61aPjq_oQh3dpa-2" value="Item 2" style="text;strokeColor=none;fillColor=none;spacingLeft=4;spacingRight=4;overflow=hidden;rotatable=0;points=[[0,0.5],[1,0.5]];portConstraint=eastwest;fontSize=12;" parent="LEk70T61aPjq_oQh3dpa-0" vertex="1">
          <mxGeometry y="56" width="160" height="30" as="geometry" />
        </mxCell>
        <mxCell id="LEk70T61aPjq_oQh3dpa-3" value="Item 3" style="text;strokeColor=none;fillColor=none;spacingLeft=4;spacingRight=4;overflow=hidden;rotatable=0;points=[[0,0.5],[1,0.5]];portConstraint=eastwest;fontSize=12;" parent="LEk70T61aPjq_oQh3dpa-0" vertex="1">
          <mxGeometry y="86" width="160" height="30" as="geometry" />
        </mxCell>
        <mxCell id="LEk70T61aPjq_oQh3dpa-4" value="Client" style="swimlane;fontStyle=0;childLayout=stackLayout;horizontal=1;startSize=26;horizontalStack=0;resizeParent=1;resizeParentMax=0;resizeLast=0;collapsible=1;marginBottom=0;align=center;fontSize=14;" parent="eu17OFbI0xMFM1NlKL8W-1" vertex="1">
          <mxGeometry x="1030" y="350" width="160" height="116" as="geometry" />
        </mxCell>
        <mxCell id="LEk70T61aPjq_oQh3dpa-5" value="Item 1" style="text;strokeColor=none;fillColor=none;spacingLeft=4;spacingRight=4;overflow=hidden;rotatable=0;points=[[0,0.5],[1,0.5]];portConstraint=eastwest;fontSize=12;" parent="LEk70T61aPjq_oQh3dpa-4" vertex="1">
          <mxGeometry y="26" width="160" height="30" as="geometry" />
        </mxCell>
        <mxCell id="LEk70T61aPjq_oQh3dpa-6" value="Item 2" style="text;strokeColor=none;fillColor=none;spacingLeft=4;spacingRight=4;overflow=hidden;rotatable=0;points=[[0,0.5],[1,0.5]];portConstraint=eastwest;fontSize=12;" parent="LEk70T61aPjq_oQh3dpa-4" vertex="1">
          <mxGeometry y="56" width="160" height="30" as="geometry" />
        </mxCell>
        <mxCell id="LEk70T61aPjq_oQh3dpa-7" value="Item 3" style="text;strokeColor=none;fillColor=none;spacingLeft=4;spacingRight=4;overflow=hidden;rotatable=0;points=[[0,0.5],[1,0.5]];portConstraint=eastwest;fontSize=12;" parent="LEk70T61aPjq_oQh3dpa-4" vertex="1">
          <mxGeometry y="86" width="160" height="30" as="geometry" />
        </mxCell>
        <mxCell id="LEk70T61aPjq_oQh3dpa-9" style="edgeStyle=orthogonalEdgeStyle;rounded=0;orthogonalLoop=1;jettySize=auto;html=1;endArrow=none;endFill=0;" parent="eu17OFbI0xMFM1NlKL8W-1" edge="1">
          <mxGeometry relative="1" as="geometry">
            <mxPoint x="360" y="110" as="sourcePoint" />
            <mxPoint x="200" y="110" as="targetPoint" />
          </mxGeometry>
        </mxCell>
        <mxCell id="LEk70T61aPjq_oQh3dpa-8" value="" style="rhombus;whiteSpace=wrap;html=1;" parent="eu17OFbI0xMFM1NlKL8W-1" vertex="1">
          <mxGeometry x="360" y="72" width="80" height="80" as="geometry" />
        </mxCell>
        <mxCell id="LEk70T61aPjq_oQh3dpa-11" style="edgeStyle=orthogonalEdgeStyle;rounded=0;orthogonalLoop=1;jettySize=auto;html=1;entryX=1;entryY=0.5;entryDx=0;entryDy=0;endArrow=none;endFill=0;" parent="eu17OFbI0xMFM1NlKL8W-1" source="nUdfGJJ9g9PxCED3hr_a-6" target="LEk70T61aPjq_oQh3dpa-8" edge="1">
          <mxGeometry relative="1" as="geometry" />
        </mxCell>
        <mxCell id="LEk70T61aPjq_oQh3dpa-12" style="edgeStyle=orthogonalEdgeStyle;rounded=0;orthogonalLoop=1;jettySize=auto;html=1;endArrow=none;endFill=0;" parent="eu17OFbI0xMFM1NlKL8W-1" source="nUdfGJJ9g9PxCED3hr_a-6" target="nUdfGJJ9g9PxCED3hr_a-10" edge="1">
          <mxGeometry relative="1" as="geometry" />
        </mxCell>
        <mxCell id="LEk70T61aPjq_oQh3dpa-14" style="edgeStyle=orthogonalEdgeStyle;rounded=0;orthogonalLoop=1;jettySize=auto;html=1;endArrow=none;endFill=0;" parent="eu17OFbI0xMFM1NlKL8W-1" source="LEk70T61aPjq_oQh3dpa-2" target="nUdfGJJ9g9PxCED3hr_a-4" edge="1">
          <mxGeometry relative="1" as="geometry" />
        </mxCell>
        <mxCell id="LEk70T61aPjq_oQh3dpa-15" style="edgeStyle=orthogonalEdgeStyle;rounded=0;orthogonalLoop=1;jettySize=auto;html=1;endArrow=none;endFill=0;" parent="eu17OFbI0xMFM1NlKL8W-1" source="LEk70T61aPjq_oQh3dpa-2" target="nUdfGJJ9g9PxCED3hr_a-0" edge="1">
          <mxGeometry relative="1" as="geometry" />
        </mxCell>
        <mxCell id="LEk70T61aPjq_oQh3dpa-18" value="1..*" style="text;html=1;strokeColor=none;fillColor=none;align=center;verticalAlign=middle;whiteSpace=wrap;rounded=0;" parent="eu17OFbI0xMFM1NlKL8W-1" vertex="1">
          <mxGeometry x="200" y="80" width="60" height="30" as="geometry" />
        </mxCell>
        <mxCell id="LEk70T61aPjq_oQh3dpa-19" value="1..*" style="text;html=1;strokeColor=none;fillColor=none;align=center;verticalAlign=middle;whiteSpace=wrap;rounded=0;" parent="eu17OFbI0xMFM1NlKL8W-1" vertex="1">
          <mxGeometry x="540" y="84" width="60" height="30" as="geometry" />
        </mxCell>
        <mxCell id="LEk70T61aPjq_oQh3dpa-20" value="1..*" style="text;html=1;strokeColor=none;fillColor=none;align=center;verticalAlign=middle;whiteSpace=wrap;rounded=0;" parent="eu17OFbI0xMFM1NlKL8W-1" vertex="1">
          <mxGeometry x="350" y="290" width="60" height="30" as="geometry" />
        </mxCell>
        <mxCell id="LEk70T61aPjq_oQh3dpa-21" value="1..1" style="text;html=1;strokeColor=none;fillColor=none;align=center;verticalAlign=middle;whiteSpace=wrap;rounded=0;" parent="eu17OFbI0xMFM1NlKL8W-1" vertex="1">
          <mxGeometry x="750" y="110" width="60" height="30" as="geometry" />
        </mxCell>
        <mxCell id="LEk70T61aPjq_oQh3dpa-22" value="1..1" style="text;html=1;strokeColor=none;fillColor=none;align=center;verticalAlign=middle;whiteSpace=wrap;rounded=0;" parent="eu17OFbI0xMFM1NlKL8W-1" vertex="1">
          <mxGeometry x="980" y="110" width="60" height="30" as="geometry" />
        </mxCell>
        <mxCell id="LEk70T61aPjq_oQh3dpa-23" value="1..1" style="text;html=1;strokeColor=none;fillColor=none;align=center;verticalAlign=middle;whiteSpace=wrap;rounded=0;" parent="eu17OFbI0xMFM1NlKL8W-1" vertex="1">
          <mxGeometry x="1100" y="320" width="60" height="30" as="geometry" />
        </mxCell>
        <mxCell id="LEk70T61aPjq_oQh3dpa-24" value="0..*" style="text;html=1;strokeColor=none;fillColor=none;align=center;verticalAlign=middle;whiteSpace=wrap;rounded=0;" parent="eu17OFbI0xMFM1NlKL8W-1" vertex="1">
          <mxGeometry x="1100" y="156" width="60" height="30" as="geometry" />
        </mxCell>
        <mxCell id="LEk70T61aPjq_oQh3dpa-25" value="uses" style="text;html=1;align=center;verticalAlign=middle;resizable=0;points=[];autosize=1;strokeColor=none;fillColor=none;" parent="eu17OFbI0xMFM1NlKL8W-1" vertex="1">
          <mxGeometry x="380" y="102" width="40" height="20" as="geometry" />
        </mxCell>
        <mxCell id="LEk70T61aPjq_oQh3dpa-26" value="Skill" style="swimlane;fontStyle=0;childLayout=stackLayout;horizontal=1;startSize=26;horizontalStack=0;resizeParent=1;resizeParentMax=0;resizeLast=0;collapsible=1;marginBottom=0;align=center;fontSize=14;" parent="eu17OFbI0xMFM1NlKL8W-1" vertex="1">
          <mxGeometry x="40" y="541" width="160" height="116" as="geometry" />
        </mxCell>
        <mxCell id="LEk70T61aPjq_oQh3dpa-27" value="skillId {PK}" style="text;strokeColor=none;fillColor=none;spacingLeft=4;spacingRight=4;overflow=hidden;rotatable=0;points=[[0,0.5],[1,0.5]];portConstraint=eastwest;fontSize=12;" parent="LEk70T61aPjq_oQh3dpa-26" vertex="1">
          <mxGeometry y="26" width="160" height="30" as="geometry" />
        </mxCell>
        <mxCell id="LEk70T61aPjq_oQh3dpa-28" value="Item 2" style="text;strokeColor=none;fillColor=none;spacingLeft=4;spacingRight=4;overflow=hidden;rotatable=0;points=[[0,0.5],[1,0.5]];portConstraint=eastwest;fontSize=12;" parent="LEk70T61aPjq_oQh3dpa-26" vertex="1">
          <mxGeometry y="56" width="160" height="30" as="geometry" />
        </mxCell>
        <mxCell id="LEk70T61aPjq_oQh3dpa-29" value="Item 3" style="text;strokeColor=none;fillColor=none;spacingLeft=4;spacingRight=4;overflow=hidden;rotatable=0;points=[[0,0.5],[1,0.5]];portConstraint=eastwest;fontSize=12;" parent="LEk70T61aPjq_oQh3dpa-26" vertex="1">
          <mxGeometry y="86" width="160" height="30" as="geometry" />
        </mxCell>
        <mxCell id="LEk70T61aPjq_oQh3dpa-30" value="Project" style="swimlane;fontStyle=0;childLayout=stackLayout;horizontal=1;startSize=26;horizontalStack=0;resizeParent=1;resizeParentMax=0;resizeLast=0;collapsible=1;marginBottom=0;align=center;fontSize=14;" parent="eu17OFbI0xMFM1NlKL8W-1" vertex="1">
          <mxGeometry x="600" y="541" width="160" height="116" as="geometry" />
        </mxCell>
        <mxCell id="LEk70T61aPjq_oQh3dpa-31" value="projectId {PK}" style="text;strokeColor=none;fillColor=none;spacingLeft=4;spacingRight=4;overflow=hidden;rotatable=0;points=[[0,0.5],[1,0.5]];portConstraint=eastwest;fontSize=12;" parent="LEk70T61aPjq_oQh3dpa-30" vertex="1">
          <mxGeometry y="26" width="160" height="30" as="geometry" />
        </mxCell>
        <mxCell id="LEk70T61aPjq_oQh3dpa-32" value="solutionId {AK}" style="text;strokeColor=none;fillColor=none;spacingLeft=4;spacingRight=4;overflow=hidden;rotatable=0;points=[[0,0.5],[1,0.5]];portConstraint=eastwest;fontSize=12;" parent="LEk70T61aPjq_oQh3dpa-30" vertex="1">
          <mxGeometry y="56" width="160" height="30" as="geometry" />
        </mxCell>
        <mxCell id="LEk70T61aPjq_oQh3dpa-33" value="clientId {FK}" style="text;strokeColor=none;fillColor=none;spacingLeft=4;spacingRight=4;overflow=hidden;rotatable=0;points=[[0,0.5],[1,0.5]];portConstraint=eastwest;fontSize=12;" parent="LEk70T61aPjq_oQh3dpa-30" vertex="1">
          <mxGeometry y="86" width="160" height="30" as="geometry" />
        </mxCell>
        <mxCell id="LEk70T61aPjq_oQh3dpa-71" style="edgeStyle=orthogonalEdgeStyle;rounded=0;orthogonalLoop=1;jettySize=auto;html=1;endArrow=none;endFill=0;" parent="eu17OFbI0xMFM1NlKL8W-1" source="LEk70T61aPjq_oQh3dpa-40" target="LEk70T61aPjq_oQh3dpa-65" edge="1">
          <mxGeometry relative="1" as="geometry" />
        </mxCell>
        <mxCell id="LEk70T61aPjq_oQh3dpa-40" value="Staff" style="swimlane;fontStyle=0;childLayout=stackLayout;horizontal=1;startSize=26;horizontalStack=0;resizeParent=1;resizeParentMax=0;resizeLast=0;collapsible=1;marginBottom=0;align=center;fontSize=14;" parent="eu17OFbI0xMFM1NlKL8W-1" vertex="1">
          <mxGeometry x="310" y="820" width="160" height="116" as="geometry" />
        </mxCell>
        <mxCell id="LEk70T61aPjq_oQh3dpa-41" value="staffId {PK}" style="text;strokeColor=none;fillColor=none;spacingLeft=4;spacingRight=4;overflow=hidden;rotatable=0;points=[[0,0.5],[1,0.5]];portConstraint=eastwest;fontSize=12;" parent="LEk70T61aPjq_oQh3dpa-40" vertex="1">
          <mxGeometry y="26" width="160" height="30" as="geometry" />
        </mxCell>
        <mxCell id="LEk70T61aPjq_oQh3dpa-42" value="Item 2" style="text;strokeColor=none;fillColor=none;spacingLeft=4;spacingRight=4;overflow=hidden;rotatable=0;points=[[0,0.5],[1,0.5]];portConstraint=eastwest;fontSize=12;" parent="LEk70T61aPjq_oQh3dpa-40" vertex="1">
          <mxGeometry y="56" width="160" height="30" as="geometry" />
        </mxCell>
        <mxCell id="LEk70T61aPjq_oQh3dpa-43" value="Item 3" style="text;strokeColor=none;fillColor=none;spacingLeft=4;spacingRight=4;overflow=hidden;rotatable=0;points=[[0,0.5],[1,0.5]];portConstraint=eastwest;fontSize=12;" parent="LEk70T61aPjq_oQh3dpa-40" vertex="1">
          <mxGeometry y="86" width="160" height="30" as="geometry" />
        </mxCell>
        <mxCell id="LEk70T61aPjq_oQh3dpa-44" value="Client" style="swimlane;fontStyle=0;childLayout=stackLayout;horizontal=1;startSize=26;horizontalStack=0;resizeParent=1;resizeParentMax=0;resizeLast=0;collapsible=1;marginBottom=0;align=center;fontSize=14;" parent="eu17OFbI0xMFM1NlKL8W-1" vertex="1">
          <mxGeometry x="1030" y="850" width="160" height="116" as="geometry" />
        </mxCell>
        <mxCell id="LEk70T61aPjq_oQh3dpa-45" value="clientID {PK}" style="text;strokeColor=none;fillColor=none;spacingLeft=4;spacingRight=4;overflow=hidden;rotatable=0;points=[[0,0.5],[1,0.5]];portConstraint=eastwest;fontSize=12;" parent="LEk70T61aPjq_oQh3dpa-44" vertex="1">
          <mxGeometry y="26" width="160" height="30" as="geometry" />
        </mxCell>
        <mxCell id="LEk70T61aPjq_oQh3dpa-46" value="Item 2" style="text;strokeColor=none;fillColor=none;spacingLeft=4;spacingRight=4;overflow=hidden;rotatable=0;points=[[0,0.5],[1,0.5]];portConstraint=eastwest;fontSize=12;" parent="LEk70T61aPjq_oQh3dpa-44" vertex="1">
          <mxGeometry y="56" width="160" height="30" as="geometry" />
        </mxCell>
        <mxCell id="LEk70T61aPjq_oQh3dpa-47" value="Item 3" style="text;strokeColor=none;fillColor=none;spacingLeft=4;spacingRight=4;overflow=hidden;rotatable=0;points=[[0,0.5],[1,0.5]];portConstraint=eastwest;fontSize=12;" parent="LEk70T61aPjq_oQh3dpa-44" vertex="1">
          <mxGeometry y="86" width="160" height="30" as="geometry" />
        </mxCell>
        <mxCell id="LEk70T61aPjq_oQh3dpa-54" value="1..*" style="text;html=1;strokeColor=none;fillColor=none;align=center;verticalAlign=middle;whiteSpace=wrap;rounded=0;" parent="eu17OFbI0xMFM1NlKL8W-1" vertex="1">
          <mxGeometry x="200" y="570" width="60" height="30" as="geometry" />
        </mxCell>
        <mxCell id="LEk70T61aPjq_oQh3dpa-55" value="1..*" style="text;html=1;strokeColor=none;fillColor=none;align=center;verticalAlign=middle;whiteSpace=wrap;rounded=0;" parent="eu17OFbI0xMFM1NlKL8W-1" vertex="1">
          <mxGeometry x="554" y="580" width="60" height="30" as="geometry" />
        </mxCell>
        <mxCell id="LEk70T61aPjq_oQh3dpa-56" value="1..*" style="text;html=1;strokeColor=none;fillColor=none;align=center;verticalAlign=middle;whiteSpace=wrap;rounded=0;" parent="eu17OFbI0xMFM1NlKL8W-1" vertex="1">
          <mxGeometry x="330" y="780" width="60" height="30" as="geometry" />
        </mxCell>
        <mxCell id="LEk70T61aPjq_oQh3dpa-59" value="1..1" style="text;html=1;strokeColor=none;fillColor=none;align=center;verticalAlign=middle;whiteSpace=wrap;rounded=0;" parent="eu17OFbI0xMFM1NlKL8W-1" vertex="1">
          <mxGeometry x="1100" y="820" width="60" height="30" as="geometry" />
        </mxCell>
        <mxCell id="LEk70T61aPjq_oQh3dpa-60" value="0..*" style="text;html=1;strokeColor=none;fillColor=none;align=center;verticalAlign=middle;whiteSpace=wrap;rounded=0;" parent="eu17OFbI0xMFM1NlKL8W-1" vertex="1">
          <mxGeometry x="750" y="584" width="60" height="30" as="geometry" />
        </mxCell>
        <mxCell id="LEk70T61aPjq_oQh3dpa-62" value="Solution" style="text;html=1;strokeColor=none;fillColor=none;align=center;verticalAlign=middle;whiteSpace=wrap;rounded=0;" parent="eu17OFbI0xMFM1NlKL8W-1" vertex="1">
          <mxGeometry y="480" width="60" height="30" as="geometry" />
        </mxCell>
        <mxCell id="LEk70T61aPjq_oQh3dpa-63" value="Question" style="text;html=1;strokeColor=none;fillColor=none;align=center;verticalAlign=middle;whiteSpace=wrap;rounded=0;" parent="eu17OFbI0xMFM1NlKL8W-1" vertex="1">
          <mxGeometry width="60" height="30" as="geometry" />
        </mxCell>
        <mxCell id="LEk70T61aPjq_oQh3dpa-65" value="usage" style="swimlane;fontStyle=0;childLayout=stackLayout;horizontal=1;startSize=26;horizontalStack=0;resizeParent=1;resizeParentMax=0;resizeLast=0;collapsible=1;marginBottom=0;align=center;fontSize=14;" parent="eu17OFbI0xMFM1NlKL8W-1" vertex="1">
          <mxGeometry x="310" y="541" width="160" height="116" as="geometry" />
        </mxCell>
        <mxCell id="LEk70T61aPjq_oQh3dpa-66" value="skillId {FK}" style="text;strokeColor=none;fillColor=none;spacingLeft=4;spacingRight=4;overflow=hidden;rotatable=0;points=[[0,0.5],[1,0.5]];portConstraint=eastwest;fontSize=12;" parent="LEk70T61aPjq_oQh3dpa-65" vertex="1">
          <mxGeometry y="26" width="160" height="30" as="geometry" />
        </mxCell>
        <mxCell id="LEk70T61aPjq_oQh3dpa-67" value="staffId {FK}" style="text;strokeColor=none;fillColor=none;spacingLeft=4;spacingRight=4;overflow=hidden;rotatable=0;points=[[0,0.5],[1,0.5]];portConstraint=eastwest;fontSize=12;" parent="LEk70T61aPjq_oQh3dpa-65" vertex="1">
          <mxGeometry y="56" width="160" height="30" as="geometry" />
        </mxCell>
        <mxCell id="LEk70T61aPjq_oQh3dpa-68" value="projectId {FK}" style="text;strokeColor=none;fillColor=none;spacingLeft=4;spacingRight=4;overflow=hidden;rotatable=0;points=[[0,0.5],[1,0.5]];portConstraint=eastwest;fontSize=12;" parent="LEk70T61aPjq_oQh3dpa-65" vertex="1">
          <mxGeometry y="86" width="160" height="30" as="geometry" />
        </mxCell>
        <mxCell id="LEk70T61aPjq_oQh3dpa-69" style="edgeStyle=orthogonalEdgeStyle;rounded=0;orthogonalLoop=1;jettySize=auto;html=1;entryX=1;entryY=0.5;entryDx=0;entryDy=0;endArrow=none;endFill=0;" parent="eu17OFbI0xMFM1NlKL8W-1" source="LEk70T61aPjq_oQh3dpa-32" target="LEk70T61aPjq_oQh3dpa-67" edge="1">
          <mxGeometry relative="1" as="geometry" />
        </mxCell>
        <mxCell id="LEk70T61aPjq_oQh3dpa-70" style="edgeStyle=orthogonalEdgeStyle;rounded=0;orthogonalLoop=1;jettySize=auto;html=1;entryX=0;entryY=0.5;entryDx=0;entryDy=0;endArrow=none;endFill=0;" parent="eu17OFbI0xMFM1NlKL8W-1" source="LEk70T61aPjq_oQh3dpa-28" target="LEk70T61aPjq_oQh3dpa-67" edge="1">
          <mxGeometry relative="1" as="geometry" />
        </mxCell>
        <mxCell id="jRMKt1soxK_ac36CgFGz-6" value="requests" style="text;html=1;strokeColor=none;fillColor=none;align=center;verticalAlign=middle;whiteSpace=wrap;rounded=0;" vertex="1" parent="eu17OFbI0xMFM1NlKL8W-1">
          <mxGeometry x="1050" y="750" width="60" height="30" as="geometry" />
        </mxCell>
        <mxCell id="jRMKt1soxK_ac36CgFGz-7" value="" style="triangle;whiteSpace=wrap;html=1;fillColor=#000000;direction=north;" vertex="1" parent="eu17OFbI0xMFM1NlKL8W-1">
          <mxGeometry x="1070" y="730" width="20" height="20" as="geometry" />
        </mxCell>
        <mxCell id="jRMKt1soxK_ac36CgFGz-10" value="works on" style="text;html=1;strokeColor=none;fillColor=none;align=center;verticalAlign=middle;whiteSpace=wrap;rounded=0;" vertex="1" parent="eu17OFbI0xMFM1NlKL8W-1">
          <mxGeometry x="560" y="363" width="60" height="30" as="geometry" />
        </mxCell>
        <mxCell id="jRMKt1soxK_ac36CgFGz-11" value="" style="triangle;whiteSpace=wrap;html=1;fillColor=#000000;" vertex="1" parent="eu17OFbI0xMFM1NlKL8W-1">
          <mxGeometry x="623" y="366" width="20" height="20" as="geometry" />
        </mxCell>
        <mxCell id="jRMKt1soxK_ac36CgFGz-12" value="1..*" style="text;html=1;strokeColor=none;fillColor=none;align=center;verticalAlign=middle;whiteSpace=wrap;rounded=0;" vertex="1" parent="eu17OFbI0xMFM1NlKL8W-1">
          <mxGeometry x="470" y="393" width="60" height="30" as="geometry" />
        </mxCell>
        <mxCell id="jRMKt1soxK_ac36CgFGz-13" value="0..*" style="text;html=1;strokeColor=none;fillColor=none;align=center;verticalAlign=middle;whiteSpace=wrap;rounded=0;" vertex="1" parent="eu17OFbI0xMFM1NlKL8W-1">
          <mxGeometry x="260" y="386" width="60" height="30" as="geometry" />
        </mxCell>
        <mxCell id="jRMKt1soxK_ac36CgFGz-14" value="has" style="text;html=1;strokeColor=none;fillColor=none;align=center;verticalAlign=middle;whiteSpace=wrap;rounded=0;" vertex="1" parent="eu17OFbI0xMFM1NlKL8W-1">
          <mxGeometry x="200" y="361" width="60" height="30" as="geometry" />
        </mxCell>
        <mxCell id="jRMKt1soxK_ac36CgFGz-15" value="" style="triangle;whiteSpace=wrap;html=1;fillColor=#000000;direction=west;" vertex="1" parent="eu17OFbI0xMFM1NlKL8W-1">
          <mxGeometry x="190" y="367" width="20" height="20" as="geometry" />
        </mxCell>
        <mxCell id="jRMKt1soxK_ac36CgFGz-16" value="works on" style="text;html=1;strokeColor=none;fillColor=none;align=center;verticalAlign=middle;whiteSpace=wrap;rounded=0;" vertex="1" parent="eu17OFbI0xMFM1NlKL8W-1">
          <mxGeometry x="858.5" y="84" width="60" height="30" as="geometry" />
        </mxCell>
        <mxCell id="jRMKt1soxK_ac36CgFGz-17" value="" style="triangle;whiteSpace=wrap;html=1;fillColor=#000000;" vertex="1" parent="eu17OFbI0xMFM1NlKL8W-1">
          <mxGeometry x="921.5" y="87" width="20" height="20" as="geometry" />
        </mxCell>
        <mxCell id="jRMKt1soxK_ac36CgFGz-18" value="requests" style="text;html=1;strokeColor=none;fillColor=none;align=center;verticalAlign=middle;whiteSpace=wrap;rounded=0;" vertex="1" parent="eu17OFbI0xMFM1NlKL8W-1">
          <mxGeometry x="1050" y="230" width="60" height="30" as="geometry" />
        </mxCell>
        <mxCell id="jRMKt1soxK_ac36CgFGz-19" value="" style="triangle;whiteSpace=wrap;html=1;fillColor=#000000;direction=north;" vertex="1" parent="eu17OFbI0xMFM1NlKL8W-1">
          <mxGeometry x="1070" y="210" width="20" height="20" as="geometry" />
        </mxCell>
        <mxCell id="jRMKt1soxK_ac36CgFGz-24" style="edgeStyle=orthogonalEdgeStyle;rounded=0;orthogonalLoop=1;jettySize=auto;html=1;endArrow=none;endFill=0;" edge="1" parent="eu17OFbI0xMFM1NlKL8W-1" source="jRMKt1soxK_ac36CgFGz-20" target="LEk70T61aPjq_oQh3dpa-30">
          <mxGeometry relative="1" as="geometry" />
        </mxCell>
        <mxCell id="jRMKt1soxK_ac36CgFGz-20" value="Staff_Project" style="swimlane;fontStyle=0;childLayout=stackLayout;horizontal=1;startSize=26;horizontalStack=0;resizeParent=1;resizeParentMax=0;resizeLast=0;collapsible=1;marginBottom=0;align=center;fontSize=14;" vertex="1" parent="eu17OFbI0xMFM1NlKL8W-1">
          <mxGeometry x="600" y="820" width="160" height="116" as="geometry" />
        </mxCell>
        <mxCell id="jRMKt1soxK_ac36CgFGz-21" value="(staffId {FK}" style="text;strokeColor=none;fillColor=none;spacingLeft=4;spacingRight=4;overflow=hidden;rotatable=0;points=[[0,0.5],[1,0.5]];portConstraint=eastwest;fontSize=12;" vertex="1" parent="jRMKt1soxK_ac36CgFGz-20">
          <mxGeometry y="26" width="160" height="30" as="geometry" />
        </mxCell>
        <mxCell id="jRMKt1soxK_ac36CgFGz-22" value="prjectId {FK}" style="text;strokeColor=none;fillColor=none;spacingLeft=4;spacingRight=4;overflow=hidden;rotatable=0;points=[[0,0.5],[1,0.5]];portConstraint=eastwest;fontSize=12;" vertex="1" parent="jRMKt1soxK_ac36CgFGz-20">
          <mxGeometry y="56" width="160" height="30" as="geometry" />
        </mxCell>
        <mxCell id="jRMKt1soxK_ac36CgFGz-23" value="startedDate) {PK}" style="text;strokeColor=none;fillColor=none;spacingLeft=4;spacingRight=4;overflow=hidden;rotatable=0;points=[[0,0.5],[1,0.5]];portConstraint=eastwest;fontSize=12;" vertex="1" parent="jRMKt1soxK_ac36CgFGz-20">
          <mxGeometry y="86" width="160" height="30" as="geometry" />
        </mxCell>
        <mxCell id="jRMKt1soxK_ac36CgFGz-25" style="edgeStyle=orthogonalEdgeStyle;rounded=0;orthogonalLoop=1;jettySize=auto;html=1;endArrow=none;endFill=0;" edge="1" parent="eu17OFbI0xMFM1NlKL8W-1" source="jRMKt1soxK_ac36CgFGz-22" target="LEk70T61aPjq_oQh3dpa-42">
          <mxGeometry relative="1" as="geometry" />
        </mxCell>
        <mxCell id="jRMKt1soxK_ac36CgFGz-26" value="is for" style="text;html=1;strokeColor=none;fillColor=none;align=center;verticalAlign=middle;whiteSpace=wrap;rounded=0;" vertex="1" parent="eu17OFbI0xMFM1NlKL8W-1">
          <mxGeometry x="670" y="720" width="60" height="30" as="geometry" />
        </mxCell>
        <mxCell id="jRMKt1soxK_ac36CgFGz-27" value="" style="triangle;whiteSpace=wrap;html=1;fillColor=#000000;direction=north;" vertex="1" parent="eu17OFbI0xMFM1NlKL8W-1">
          <mxGeometry x="690" y="700" width="20" height="20" as="geometry" />
        </mxCell>
        <mxCell id="jRMKt1soxK_ac36CgFGz-28" value="1..1" style="text;html=1;strokeColor=none;fillColor=none;align=center;verticalAlign=middle;whiteSpace=wrap;rounded=0;" vertex="1" parent="eu17OFbI0xMFM1NlKL8W-1">
          <mxGeometry x="630" y="656" width="60" height="30" as="geometry" />
        </mxCell>
        <mxCell id="jRMKt1soxK_ac36CgFGz-29" value="1..*" style="text;html=1;strokeColor=none;fillColor=none;align=center;verticalAlign=middle;whiteSpace=wrap;rounded=0;" vertex="1" parent="eu17OFbI0xMFM1NlKL8W-1">
          <mxGeometry x="630" y="790" width="60" height="30" as="geometry" />
        </mxCell>
        <mxCell id="jRMKt1soxK_ac36CgFGz-30" value="is for" style="text;html=1;strokeColor=none;fillColor=none;align=center;verticalAlign=middle;whiteSpace=wrap;rounded=0;" vertex="1" parent="eu17OFbI0xMFM1NlKL8W-1">
          <mxGeometry x="520" y="862" width="60" height="30" as="geometry" />
        </mxCell>
        <mxCell id="jRMKt1soxK_ac36CgFGz-31" value="" style="triangle;whiteSpace=wrap;html=1;fillColor=#000000;direction=west;" vertex="1" parent="eu17OFbI0xMFM1NlKL8W-1">
          <mxGeometry x="510" y="868" width="20" height="20" as="geometry" />
        </mxCell>
        <mxCell id="jRMKt1soxK_ac36CgFGz-33" value="1..1" style="text;html=1;strokeColor=none;fillColor=none;align=center;verticalAlign=middle;whiteSpace=wrap;rounded=0;" vertex="1" parent="eu17OFbI0xMFM1NlKL8W-1">
          <mxGeometry x="455" y="888" width="60" height="30" as="geometry" />
        </mxCell>
        <mxCell id="jRMKt1soxK_ac36CgFGz-34" value="1..*" style="text;html=1;strokeColor=none;fillColor=none;align=center;verticalAlign=middle;whiteSpace=wrap;rounded=0;" vertex="1" parent="eu17OFbI0xMFM1NlKL8W-1">
          <mxGeometry x="550" y="888" width="60" height="30" as="geometry" />
        </mxCell>
        <mxCell id="jRMKt1soxK_ac36CgFGz-39" style="edgeStyle=orthogonalEdgeStyle;rounded=0;orthogonalLoop=1;jettySize=auto;html=1;endArrow=none;endFill=0;" edge="1" parent="eu17OFbI0xMFM1NlKL8W-1" source="jRMKt1soxK_ac36CgFGz-35" target="LEk70T61aPjq_oQh3dpa-26">
          <mxGeometry relative="1" as="geometry" />
        </mxCell>
        <mxCell id="jRMKt1soxK_ac36CgFGz-35" value="Staff_Skill" style="swimlane;fontStyle=0;childLayout=stackLayout;horizontal=1;startSize=26;horizontalStack=0;resizeParent=1;resizeParentMax=0;resizeLast=0;collapsible=1;marginBottom=0;align=center;fontSize=14;" vertex="1" parent="eu17OFbI0xMFM1NlKL8W-1">
          <mxGeometry x="40" y="820" width="160" height="116" as="geometry" />
        </mxCell>
        <mxCell id="jRMKt1soxK_ac36CgFGz-36" value="staffId {FK}" style="text;strokeColor=none;fillColor=none;spacingLeft=4;spacingRight=4;overflow=hidden;rotatable=0;points=[[0,0.5],[1,0.5]];portConstraint=eastwest;fontSize=12;" vertex="1" parent="jRMKt1soxK_ac36CgFGz-35">
          <mxGeometry y="26" width="160" height="30" as="geometry" />
        </mxCell>
        <mxCell id="jRMKt1soxK_ac36CgFGz-37" value="skillId {FK}" style="text;strokeColor=none;fillColor=none;spacingLeft=4;spacingRight=4;overflow=hidden;rotatable=0;points=[[0,0.5],[1,0.5]];portConstraint=eastwest;fontSize=12;" vertex="1" parent="jRMKt1soxK_ac36CgFGz-35">
          <mxGeometry y="56" width="160" height="30" as="geometry" />
        </mxCell>
        <mxCell id="jRMKt1soxK_ac36CgFGz-38" value="Item 3" style="text;strokeColor=none;fillColor=none;spacingLeft=4;spacingRight=4;overflow=hidden;rotatable=0;points=[[0,0.5],[1,0.5]];portConstraint=eastwest;fontSize=12;" vertex="1" parent="jRMKt1soxK_ac36CgFGz-35">
          <mxGeometry y="86" width="160" height="30" as="geometry" />
        </mxCell>
        <mxCell id="jRMKt1soxK_ac36CgFGz-40" style="edgeStyle=orthogonalEdgeStyle;rounded=0;orthogonalLoop=1;jettySize=auto;html=1;endArrow=none;endFill=0;" edge="1" parent="eu17OFbI0xMFM1NlKL8W-1" source="jRMKt1soxK_ac36CgFGz-37" target="LEk70T61aPjq_oQh3dpa-42">
          <mxGeometry relative="1" as="geometry" />
        </mxCell>
        <mxCell id="jRMKt1soxK_ac36CgFGz-41" value="is for" style="text;html=1;strokeColor=none;fillColor=none;align=center;verticalAlign=middle;whiteSpace=wrap;rounded=0;" vertex="1" parent="eu17OFbI0xMFM1NlKL8W-1">
          <mxGeometry x="60" y="735" width="60" height="30" as="geometry" />
        </mxCell>
        <mxCell id="jRMKt1soxK_ac36CgFGz-42" value="" style="triangle;whiteSpace=wrap;html=1;fillColor=#000000;direction=north;" vertex="1" parent="eu17OFbI0xMFM1NlKL8W-1">
          <mxGeometry x="80" y="715" width="20" height="20" as="geometry" />
        </mxCell>
        <mxCell id="jRMKt1soxK_ac36CgFGz-43" value="is for" style="text;html=1;strokeColor=none;fillColor=none;align=center;verticalAlign=middle;whiteSpace=wrap;rounded=0;" vertex="1" parent="eu17OFbI0xMFM1NlKL8W-1">
          <mxGeometry x="220" y="862" width="60" height="30" as="geometry" />
        </mxCell>
        <mxCell id="jRMKt1soxK_ac36CgFGz-44" value="" style="triangle;whiteSpace=wrap;html=1;fillColor=#000000;" vertex="1" parent="eu17OFbI0xMFM1NlKL8W-1">
          <mxGeometry x="283" y="865" width="20" height="20" as="geometry" />
        </mxCell>
        <mxCell id="jRMKt1soxK_ac36CgFGz-45" value="1..1" style="text;html=1;strokeColor=none;fillColor=none;align=center;verticalAlign=middle;whiteSpace=wrap;rounded=0;" vertex="1" parent="eu17OFbI0xMFM1NlKL8W-1">
          <mxGeometry x="260" y="892" width="60" height="30" as="geometry" />
        </mxCell>
        <mxCell id="jRMKt1soxK_ac36CgFGz-46" value="1..*" style="text;html=1;strokeColor=none;fillColor=none;align=center;verticalAlign=middle;whiteSpace=wrap;rounded=0;" vertex="1" parent="eu17OFbI0xMFM1NlKL8W-1">
          <mxGeometry x="190" y="893" width="60" height="30" as="geometry" />
        </mxCell>
        <mxCell id="jRMKt1soxK_ac36CgFGz-47" value="1..1" style="text;html=1;strokeColor=none;fillColor=none;align=center;verticalAlign=middle;whiteSpace=wrap;rounded=0;" vertex="1" parent="eu17OFbI0xMFM1NlKL8W-1">
          <mxGeometry x="110" y="656" width="60" height="30" as="geometry" />
        </mxCell>
        <mxCell id="jRMKt1soxK_ac36CgFGz-48" value="0..*" style="text;html=1;strokeColor=none;fillColor=none;align=center;verticalAlign=middle;whiteSpace=wrap;rounded=0;" vertex="1" parent="eu17OFbI0xMFM1NlKL8W-1">
          <mxGeometry x="110" y="790" width="60" height="30" as="geometry" />
        </mxCell>
        <mxCell id="jRMKt1soxK_ac36CgFGz-49" style="edgeStyle=orthogonalEdgeStyle;rounded=0;orthogonalLoop=1;jettySize=auto;html=1;endArrow=none;endFill=0;" edge="1" parent="eu17OFbI0xMFM1NlKL8W-1" source="LEk70T61aPjq_oQh3dpa-32" target="LEk70T61aPjq_oQh3dpa-44">
          <mxGeometry relative="1" as="geometry" />
        </mxCell>
      </root>
    </mxGraphModel>
  </diagram>
  <diagram id="g7LDys4kCO618y7fY7vr" name="ModelAnswer">
    <mxGraphModel dx="1422" dy="754" grid="1" gridSize="10" guides="1" tooltips="1" connect="1" arrows="1" fold="1" page="1" pageScale="1" pageWidth="850" pageHeight="1100" math="0" shadow="0">
      <root>
        <mxCell id="eb_uJr6ZrpkrWKmLd1Z1-0" />
        <mxCell id="eb_uJr6ZrpkrWKmLd1Z1-1" parent="eb_uJr6ZrpkrWKmLd1Z1-0" />
        <mxCell id="5SxCGBYNkdeSprI5TSHA-0" value="Skill" style="swimlane;fontStyle=0;childLayout=stackLayout;horizontal=1;startSize=26;horizontalStack=0;resizeParent=1;resizeParentMax=0;resizeLast=0;collapsible=1;marginBottom=0;align=center;fontSize=14;" vertex="1" parent="eb_uJr6ZrpkrWKmLd1Z1-1">
          <mxGeometry x="30" y="30" width="160" height="116" as="geometry" />
        </mxCell>
        <mxCell id="5SxCGBYNkdeSprI5TSHA-1" value="skillId {PK}" style="text;strokeColor=none;fillColor=none;spacingLeft=4;spacingRight=4;overflow=hidden;rotatable=0;points=[[0,0.5],[1,0.5]];portConstraint=eastwest;fontSize=12;" vertex="1" parent="5SxCGBYNkdeSprI5TSHA-0">
          <mxGeometry y="26" width="160" height="30" as="geometry" />
        </mxCell>
        <mxCell id="5SxCGBYNkdeSprI5TSHA-2" value="Item 2" style="text;strokeColor=none;fillColor=none;spacingLeft=4;spacingRight=4;overflow=hidden;rotatable=0;points=[[0,0.5],[1,0.5]];portConstraint=eastwest;fontSize=12;" vertex="1" parent="5SxCGBYNkdeSprI5TSHA-0">
          <mxGeometry y="56" width="160" height="30" as="geometry" />
        </mxCell>
        <mxCell id="5SxCGBYNkdeSprI5TSHA-3" value="Item 3" style="text;strokeColor=none;fillColor=none;spacingLeft=4;spacingRight=4;overflow=hidden;rotatable=0;points=[[0,0.5],[1,0.5]];portConstraint=eastwest;fontSize=12;" vertex="1" parent="5SxCGBYNkdeSprI5TSHA-0">
          <mxGeometry y="86" width="160" height="30" as="geometry" />
        </mxCell>
        <mxCell id="5SxCGBYNkdeSprI5TSHA-4" value="Project" style="swimlane;fontStyle=0;childLayout=stackLayout;horizontal=1;startSize=26;horizontalStack=0;resizeParent=1;resizeParentMax=0;resizeLast=0;collapsible=1;marginBottom=0;align=center;fontSize=14;" vertex="1" parent="eb_uJr6ZrpkrWKmLd1Z1-1">
          <mxGeometry x="590" y="30" width="160" height="116" as="geometry" />
        </mxCell>
        <mxCell id="5SxCGBYNkdeSprI5TSHA-5" value="projectId {PK}" style="text;strokeColor=none;fillColor=none;spacingLeft=4;spacingRight=4;overflow=hidden;rotatable=0;points=[[0,0.5],[1,0.5]];portConstraint=eastwest;fontSize=12;" vertex="1" parent="5SxCGBYNkdeSprI5TSHA-4">
          <mxGeometry y="26" width="160" height="30" as="geometry" />
        </mxCell>
        <mxCell id="5SxCGBYNkdeSprI5TSHA-6" value="solutionId {AK}" style="text;strokeColor=none;fillColor=none;spacingLeft=4;spacingRight=4;overflow=hidden;rotatable=0;points=[[0,0.5],[1,0.5]];portConstraint=eastwest;fontSize=12;" vertex="1" parent="5SxCGBYNkdeSprI5TSHA-4">
          <mxGeometry y="56" width="160" height="30" as="geometry" />
        </mxCell>
        <mxCell id="5SxCGBYNkdeSprI5TSHA-7" value="clientId {FK}" style="text;strokeColor=none;fillColor=none;spacingLeft=4;spacingRight=4;overflow=hidden;rotatable=0;points=[[0,0.5],[1,0.5]];portConstraint=eastwest;fontSize=12;" vertex="1" parent="5SxCGBYNkdeSprI5TSHA-4">
          <mxGeometry y="86" width="160" height="30" as="geometry" />
        </mxCell>
        <mxCell id="5SxCGBYNkdeSprI5TSHA-8" style="edgeStyle=orthogonalEdgeStyle;rounded=0;orthogonalLoop=1;jettySize=auto;html=1;endArrow=none;endFill=0;" edge="1" parent="eb_uJr6ZrpkrWKmLd1Z1-1" source="5SxCGBYNkdeSprI5TSHA-9" target="5SxCGBYNkdeSprI5TSHA-22">
          <mxGeometry relative="1" as="geometry" />
        </mxCell>
        <mxCell id="5SxCGBYNkdeSprI5TSHA-9" value="Staff" style="swimlane;fontStyle=0;childLayout=stackLayout;horizontal=1;startSize=26;horizontalStack=0;resizeParent=1;resizeParentMax=0;resizeLast=0;collapsible=1;marginBottom=0;align=center;fontSize=14;" vertex="1" parent="eb_uJr6ZrpkrWKmLd1Z1-1">
          <mxGeometry x="300" y="309" width="160" height="116" as="geometry" />
        </mxCell>
        <mxCell id="5SxCGBYNkdeSprI5TSHA-10" value="staffId {PK}" style="text;strokeColor=none;fillColor=none;spacingLeft=4;spacingRight=4;overflow=hidden;rotatable=0;points=[[0,0.5],[1,0.5]];portConstraint=eastwest;fontSize=12;" vertex="1" parent="5SxCGBYNkdeSprI5TSHA-9">
          <mxGeometry y="26" width="160" height="30" as="geometry" />
        </mxCell>
        <mxCell id="5SxCGBYNkdeSprI5TSHA-11" value="Item 2" style="text;strokeColor=none;fillColor=none;spacingLeft=4;spacingRight=4;overflow=hidden;rotatable=0;points=[[0,0.5],[1,0.5]];portConstraint=eastwest;fontSize=12;" vertex="1" parent="5SxCGBYNkdeSprI5TSHA-9">
          <mxGeometry y="56" width="160" height="30" as="geometry" />
        </mxCell>
        <mxCell id="5SxCGBYNkdeSprI5TSHA-12" value="Item 3" style="text;strokeColor=none;fillColor=none;spacingLeft=4;spacingRight=4;overflow=hidden;rotatable=0;points=[[0,0.5],[1,0.5]];portConstraint=eastwest;fontSize=12;" vertex="1" parent="5SxCGBYNkdeSprI5TSHA-9">
          <mxGeometry y="86" width="160" height="30" as="geometry" />
        </mxCell>
        <mxCell id="5SxCGBYNkdeSprI5TSHA-13" value="Client" style="swimlane;fontStyle=0;childLayout=stackLayout;horizontal=1;startSize=26;horizontalStack=0;resizeParent=1;resizeParentMax=0;resizeLast=0;collapsible=1;marginBottom=0;align=center;fontSize=14;" vertex="1" parent="eb_uJr6ZrpkrWKmLd1Z1-1">
          <mxGeometry x="1070" y="43" width="160" height="116" as="geometry" />
        </mxCell>
        <mxCell id="5SxCGBYNkdeSprI5TSHA-14" value="clientID {PK}" style="text;strokeColor=none;fillColor=none;spacingLeft=4;spacingRight=4;overflow=hidden;rotatable=0;points=[[0,0.5],[1,0.5]];portConstraint=eastwest;fontSize=12;" vertex="1" parent="5SxCGBYNkdeSprI5TSHA-13">
          <mxGeometry y="26" width="160" height="30" as="geometry" />
        </mxCell>
        <mxCell id="5SxCGBYNkdeSprI5TSHA-15" value="Item 2" style="text;strokeColor=none;fillColor=none;spacingLeft=4;spacingRight=4;overflow=hidden;rotatable=0;points=[[0,0.5],[1,0.5]];portConstraint=eastwest;fontSize=12;" vertex="1" parent="5SxCGBYNkdeSprI5TSHA-13">
          <mxGeometry y="56" width="160" height="30" as="geometry" />
        </mxCell>
        <mxCell id="5SxCGBYNkdeSprI5TSHA-16" value="Item 3" style="text;strokeColor=none;fillColor=none;spacingLeft=4;spacingRight=4;overflow=hidden;rotatable=0;points=[[0,0.5],[1,0.5]];portConstraint=eastwest;fontSize=12;" vertex="1" parent="5SxCGBYNkdeSprI5TSHA-13">
          <mxGeometry y="86" width="160" height="30" as="geometry" />
        </mxCell>
        <mxCell id="5SxCGBYNkdeSprI5TSHA-17" value="1..1" style="text;html=1;strokeColor=none;fillColor=none;align=center;verticalAlign=middle;whiteSpace=wrap;rounded=0;" vertex="1" parent="eb_uJr6ZrpkrWKmLd1Z1-1">
          <mxGeometry x="180" y="73" width="60" height="30" as="geometry" />
        </mxCell>
        <mxCell id="5SxCGBYNkdeSprI5TSHA-18" value="1..1" style="text;html=1;strokeColor=none;fillColor=none;align=center;verticalAlign=middle;whiteSpace=wrap;rounded=0;" vertex="1" parent="eb_uJr6ZrpkrWKmLd1Z1-1">
          <mxGeometry x="544" y="69" width="60" height="30" as="geometry" />
        </mxCell>
        <mxCell id="5SxCGBYNkdeSprI5TSHA-19" value="1..*" style="text;html=1;strokeColor=none;fillColor=none;align=center;verticalAlign=middle;whiteSpace=wrap;rounded=0;" vertex="1" parent="eb_uJr6ZrpkrWKmLd1Z1-1">
          <mxGeometry x="330" y="279" width="60" height="30" as="geometry" />
        </mxCell>
        <mxCell id="5SxCGBYNkdeSprI5TSHA-20" value="1..1" style="text;html=1;strokeColor=none;fillColor=none;align=center;verticalAlign=middle;whiteSpace=wrap;rounded=0;" vertex="1" parent="eb_uJr6ZrpkrWKmLd1Z1-1">
          <mxGeometry x="1010" y="73" width="60" height="30" as="geometry" />
        </mxCell>
        <mxCell id="5SxCGBYNkdeSprI5TSHA-21" value="0..*" style="text;html=1;strokeColor=none;fillColor=none;align=center;verticalAlign=middle;whiteSpace=wrap;rounded=0;" vertex="1" parent="eb_uJr6ZrpkrWKmLd1Z1-1">
          <mxGeometry x="740" y="73" width="60" height="30" as="geometry" />
        </mxCell>
        <mxCell id="5SxCGBYNkdeSprI5TSHA-22" value="Task" style="swimlane;fontStyle=0;childLayout=stackLayout;horizontal=1;startSize=26;horizontalStack=0;resizeParent=1;resizeParentMax=0;resizeLast=0;collapsible=1;marginBottom=0;align=center;fontSize=14;" vertex="1" parent="eb_uJr6ZrpkrWKmLd1Z1-1">
          <mxGeometry x="300" y="30" width="160" height="116" as="geometry" />
        </mxCell>
        <mxCell id="5SxCGBYNkdeSprI5TSHA-23" value="skillId {FK}" style="text;strokeColor=none;fillColor=none;spacingLeft=4;spacingRight=4;overflow=hidden;rotatable=0;points=[[0,0.5],[1,0.5]];portConstraint=eastwest;fontSize=12;" vertex="1" parent="5SxCGBYNkdeSprI5TSHA-22">
          <mxGeometry y="26" width="160" height="30" as="geometry" />
        </mxCell>
        <mxCell id="5SxCGBYNkdeSprI5TSHA-24" value="staffId {FK}" style="text;strokeColor=none;fillColor=none;spacingLeft=4;spacingRight=4;overflow=hidden;rotatable=0;points=[[0,0.5],[1,0.5]];portConstraint=eastwest;fontSize=12;" vertex="1" parent="5SxCGBYNkdeSprI5TSHA-22">
          <mxGeometry y="56" width="160" height="30" as="geometry" />
        </mxCell>
        <mxCell id="5SxCGBYNkdeSprI5TSHA-25" value="projectId {FK}" style="text;strokeColor=none;fillColor=none;spacingLeft=4;spacingRight=4;overflow=hidden;rotatable=0;points=[[0,0.5],[1,0.5]];portConstraint=eastwest;fontSize=12;" vertex="1" parent="5SxCGBYNkdeSprI5TSHA-22">
          <mxGeometry y="86" width="160" height="30" as="geometry" />
        </mxCell>
        <mxCell id="5SxCGBYNkdeSprI5TSHA-26" style="edgeStyle=orthogonalEdgeStyle;rounded=0;orthogonalLoop=1;jettySize=auto;html=1;entryX=1;entryY=0.5;entryDx=0;entryDy=0;endArrow=none;endFill=0;" edge="1" parent="eb_uJr6ZrpkrWKmLd1Z1-1" source="5SxCGBYNkdeSprI5TSHA-6" target="5SxCGBYNkdeSprI5TSHA-24">
          <mxGeometry relative="1" as="geometry" />
        </mxCell>
        <mxCell id="5SxCGBYNkdeSprI5TSHA-27" style="edgeStyle=orthogonalEdgeStyle;rounded=0;orthogonalLoop=1;jettySize=auto;html=1;entryX=0;entryY=0.5;entryDx=0;entryDy=0;endArrow=none;endFill=0;" edge="1" parent="eb_uJr6ZrpkrWKmLd1Z1-1" source="5SxCGBYNkdeSprI5TSHA-2" target="5SxCGBYNkdeSprI5TSHA-24">
          <mxGeometry relative="1" as="geometry" />
        </mxCell>
        <mxCell id="5SxCGBYNkdeSprI5TSHA-28" value="commissions" style="text;html=1;strokeColor=none;fillColor=none;align=center;verticalAlign=middle;whiteSpace=wrap;rounded=0;" vertex="1" parent="eb_uJr6ZrpkrWKmLd1Z1-1">
          <mxGeometry x="879" y="100" width="91" height="30" as="geometry" />
        </mxCell>
        <mxCell id="5SxCGBYNkdeSprI5TSHA-29" value="" style="triangle;whiteSpace=wrap;html=1;fillColor=#000000;direction=west;" vertex="1" parent="eb_uJr6ZrpkrWKmLd1Z1-1">
          <mxGeometry x="860" y="105" width="19" height="20" as="geometry" />
        </mxCell>
        <mxCell id="5SxCGBYNkdeSprI5TSHA-30" style="edgeStyle=orthogonalEdgeStyle;rounded=0;orthogonalLoop=1;jettySize=auto;html=1;endArrow=none;endFill=0;" edge="1" parent="eb_uJr6ZrpkrWKmLd1Z1-1" source="5SxCGBYNkdeSprI5TSHA-31" target="5SxCGBYNkdeSprI5TSHA-4">
          <mxGeometry relative="1" as="geometry" />
        </mxCell>
        <mxCell id="5SxCGBYNkdeSprI5TSHA-31" value="Staff_Project" style="swimlane;fontStyle=0;childLayout=stackLayout;horizontal=1;startSize=26;horizontalStack=0;resizeParent=1;resizeParentMax=0;resizeLast=0;collapsible=1;marginBottom=0;align=center;fontSize=14;" vertex="1" parent="eb_uJr6ZrpkrWKmLd1Z1-1">
          <mxGeometry x="590" y="309" width="160" height="116" as="geometry" />
        </mxCell>
        <mxCell id="5SxCGBYNkdeSprI5TSHA-32" value="(staffId {FK}" style="text;strokeColor=none;fillColor=none;spacingLeft=4;spacingRight=4;overflow=hidden;rotatable=0;points=[[0,0.5],[1,0.5]];portConstraint=eastwest;fontSize=12;" vertex="1" parent="5SxCGBYNkdeSprI5TSHA-31">
          <mxGeometry y="26" width="160" height="30" as="geometry" />
        </mxCell>
        <mxCell id="5SxCGBYNkdeSprI5TSHA-33" value="prjectId {FK}" style="text;strokeColor=none;fillColor=none;spacingLeft=4;spacingRight=4;overflow=hidden;rotatable=0;points=[[0,0.5],[1,0.5]];portConstraint=eastwest;fontSize=12;" vertex="1" parent="5SxCGBYNkdeSprI5TSHA-31">
          <mxGeometry y="56" width="160" height="30" as="geometry" />
        </mxCell>
        <mxCell id="5SxCGBYNkdeSprI5TSHA-34" value="startedDate) {PK}" style="text;strokeColor=none;fillColor=none;spacingLeft=4;spacingRight=4;overflow=hidden;rotatable=0;points=[[0,0.5],[1,0.5]];portConstraint=eastwest;fontSize=12;" vertex="1" parent="5SxCGBYNkdeSprI5TSHA-31">
          <mxGeometry y="86" width="160" height="30" as="geometry" />
        </mxCell>
        <mxCell id="5SxCGBYNkdeSprI5TSHA-35" style="edgeStyle=orthogonalEdgeStyle;rounded=0;orthogonalLoop=1;jettySize=auto;html=1;endArrow=none;endFill=0;" edge="1" parent="eb_uJr6ZrpkrWKmLd1Z1-1" source="5SxCGBYNkdeSprI5TSHA-33" target="5SxCGBYNkdeSprI5TSHA-11">
          <mxGeometry relative="1" as="geometry" />
        </mxCell>
        <mxCell id="5SxCGBYNkdeSprI5TSHA-36" value="is for" style="text;html=1;strokeColor=none;fillColor=none;align=center;verticalAlign=middle;whiteSpace=wrap;rounded=0;" vertex="1" parent="eb_uJr6ZrpkrWKmLd1Z1-1">
          <mxGeometry x="660" y="209" width="60" height="30" as="geometry" />
        </mxCell>
        <mxCell id="5SxCGBYNkdeSprI5TSHA-37" value="" style="triangle;whiteSpace=wrap;html=1;fillColor=#000000;direction=north;" vertex="1" parent="eb_uJr6ZrpkrWKmLd1Z1-1">
          <mxGeometry x="680" y="189" width="20" height="20" as="geometry" />
        </mxCell>
        <mxCell id="5SxCGBYNkdeSprI5TSHA-38" value="1..1" style="text;html=1;strokeColor=none;fillColor=none;align=center;verticalAlign=middle;whiteSpace=wrap;rounded=0;" vertex="1" parent="eb_uJr6ZrpkrWKmLd1Z1-1">
          <mxGeometry x="620" y="145" width="60" height="30" as="geometry" />
        </mxCell>
        <mxCell id="5SxCGBYNkdeSprI5TSHA-39" value="1..*" style="text;html=1;strokeColor=none;fillColor=none;align=center;verticalAlign=middle;whiteSpace=wrap;rounded=0;" vertex="1" parent="eb_uJr6ZrpkrWKmLd1Z1-1">
          <mxGeometry x="620" y="279" width="60" height="30" as="geometry" />
        </mxCell>
        <mxCell id="5SxCGBYNkdeSprI5TSHA-40" value="is assigned" style="text;html=1;strokeColor=none;fillColor=none;align=center;verticalAlign=middle;whiteSpace=wrap;rounded=0;" vertex="1" parent="eb_uJr6ZrpkrWKmLd1Z1-1">
          <mxGeometry x="474" y="351" width="90" height="30" as="geometry" />
        </mxCell>
        <mxCell id="5SxCGBYNkdeSprI5TSHA-41" value="" style="triangle;whiteSpace=wrap;html=1;fillColor=#000000;direction=east;" vertex="1" parent="eb_uJr6ZrpkrWKmLd1Z1-1">
          <mxGeometry x="554" y="356" width="20" height="20" as="geometry" />
        </mxCell>
        <mxCell id="5SxCGBYNkdeSprI5TSHA-42" value="1..1" style="text;html=1;strokeColor=none;fillColor=none;align=center;verticalAlign=middle;whiteSpace=wrap;rounded=0;" vertex="1" parent="eb_uJr6ZrpkrWKmLd1Z1-1">
          <mxGeometry x="445" y="377" width="60" height="30" as="geometry" />
        </mxCell>
        <mxCell id="5SxCGBYNkdeSprI5TSHA-43" value="0..*" style="text;html=1;strokeColor=none;fillColor=none;align=center;verticalAlign=middle;whiteSpace=wrap;rounded=0;" vertex="1" parent="eb_uJr6ZrpkrWKmLd1Z1-1">
          <mxGeometry x="540" y="377" width="60" height="30" as="geometry" />
        </mxCell>
        <mxCell id="5SxCGBYNkdeSprI5TSHA-44" style="edgeStyle=orthogonalEdgeStyle;rounded=0;orthogonalLoop=1;jettySize=auto;html=1;endArrow=none;endFill=0;" edge="1" parent="eb_uJr6ZrpkrWKmLd1Z1-1" source="5SxCGBYNkdeSprI5TSHA-45" target="5SxCGBYNkdeSprI5TSHA-0">
          <mxGeometry relative="1" as="geometry" />
        </mxCell>
        <mxCell id="5SxCGBYNkdeSprI5TSHA-45" value="Staff_Skill" style="swimlane;fontStyle=0;childLayout=stackLayout;horizontal=1;startSize=26;horizontalStack=0;resizeParent=1;resizeParentMax=0;resizeLast=0;collapsible=1;marginBottom=0;align=center;fontSize=14;" vertex="1" parent="eb_uJr6ZrpkrWKmLd1Z1-1">
          <mxGeometry x="30" y="309" width="160" height="116" as="geometry" />
        </mxCell>
        <mxCell id="5SxCGBYNkdeSprI5TSHA-46" value="staffId {FK}" style="text;strokeColor=none;fillColor=none;spacingLeft=4;spacingRight=4;overflow=hidden;rotatable=0;points=[[0,0.5],[1,0.5]];portConstraint=eastwest;fontSize=12;" vertex="1" parent="5SxCGBYNkdeSprI5TSHA-45">
          <mxGeometry y="26" width="160" height="30" as="geometry" />
        </mxCell>
        <mxCell id="5SxCGBYNkdeSprI5TSHA-47" value="skillId {FK}" style="text;strokeColor=none;fillColor=none;spacingLeft=4;spacingRight=4;overflow=hidden;rotatable=0;points=[[0,0.5],[1,0.5]];portConstraint=eastwest;fontSize=12;" vertex="1" parent="5SxCGBYNkdeSprI5TSHA-45">
          <mxGeometry y="56" width="160" height="30" as="geometry" />
        </mxCell>
        <mxCell id="5SxCGBYNkdeSprI5TSHA-48" value="Item 3" style="text;strokeColor=none;fillColor=none;spacingLeft=4;spacingRight=4;overflow=hidden;rotatable=0;points=[[0,0.5],[1,0.5]];portConstraint=eastwest;fontSize=12;" vertex="1" parent="5SxCGBYNkdeSprI5TSHA-45">
          <mxGeometry y="86" width="160" height="30" as="geometry" />
        </mxCell>
        <mxCell id="5SxCGBYNkdeSprI5TSHA-49" style="edgeStyle=orthogonalEdgeStyle;rounded=0;orthogonalLoop=1;jettySize=auto;html=1;endArrow=none;endFill=0;" edge="1" parent="eb_uJr6ZrpkrWKmLd1Z1-1" source="5SxCGBYNkdeSprI5TSHA-47" target="5SxCGBYNkdeSprI5TSHA-11">
          <mxGeometry relative="1" as="geometry" />
        </mxCell>
        <mxCell id="5SxCGBYNkdeSprI5TSHA-50" value="is for" style="text;html=1;strokeColor=none;fillColor=none;align=center;verticalAlign=middle;whiteSpace=wrap;rounded=0;" vertex="1" parent="eb_uJr6ZrpkrWKmLd1Z1-1">
          <mxGeometry x="50" y="224" width="60" height="30" as="geometry" />
        </mxCell>
        <mxCell id="5SxCGBYNkdeSprI5TSHA-51" value="" style="triangle;whiteSpace=wrap;html=1;fillColor=#000000;direction=north;" vertex="1" parent="eb_uJr6ZrpkrWKmLd1Z1-1">
          <mxGeometry x="70" y="204" width="20" height="20" as="geometry" />
        </mxCell>
        <mxCell id="5SxCGBYNkdeSprI5TSHA-52" value="is allocated" style="text;html=1;strokeColor=none;fillColor=none;align=center;verticalAlign=middle;whiteSpace=wrap;rounded=0;" vertex="1" parent="eb_uJr6ZrpkrWKmLd1Z1-1">
          <mxGeometry x="200" y="351" width="70" height="30" as="geometry" />
        </mxCell>
        <mxCell id="5SxCGBYNkdeSprI5TSHA-53" value="" style="triangle;whiteSpace=wrap;html=1;fillColor=#000000;" vertex="1" parent="eb_uJr6ZrpkrWKmLd1Z1-1">
          <mxGeometry x="273" y="354" width="20" height="20" as="geometry" />
        </mxCell>
        <mxCell id="5SxCGBYNkdeSprI5TSHA-54" value="1..1" style="text;html=1;strokeColor=none;fillColor=none;align=center;verticalAlign=middle;whiteSpace=wrap;rounded=0;" vertex="1" parent="eb_uJr6ZrpkrWKmLd1Z1-1">
          <mxGeometry x="250" y="381" width="60" height="30" as="geometry" />
        </mxCell>
        <mxCell id="5SxCGBYNkdeSprI5TSHA-55" value="1..*" style="text;html=1;strokeColor=none;fillColor=none;align=center;verticalAlign=middle;whiteSpace=wrap;rounded=0;" vertex="1" parent="eb_uJr6ZrpkrWKmLd1Z1-1">
          <mxGeometry x="180" y="382" width="60" height="30" as="geometry" />
        </mxCell>
        <mxCell id="5SxCGBYNkdeSprI5TSHA-56" value="1..1" style="text;html=1;strokeColor=none;fillColor=none;align=center;verticalAlign=middle;whiteSpace=wrap;rounded=0;" vertex="1" parent="eb_uJr6ZrpkrWKmLd1Z1-1">
          <mxGeometry x="100" y="145" width="60" height="30" as="geometry" />
        </mxCell>
        <mxCell id="5SxCGBYNkdeSprI5TSHA-57" value="0..*" style="text;html=1;strokeColor=none;fillColor=none;align=center;verticalAlign=middle;whiteSpace=wrap;rounded=0;" vertex="1" parent="eb_uJr6ZrpkrWKmLd1Z1-1">
          <mxGeometry x="100" y="279" width="60" height="30" as="geometry" />
        </mxCell>
        <mxCell id="5SxCGBYNkdeSprI5TSHA-58" style="edgeStyle=orthogonalEdgeStyle;rounded=0;orthogonalLoop=1;jettySize=auto;html=1;endArrow=none;endFill=0;" edge="1" parent="eb_uJr6ZrpkrWKmLd1Z1-1" source="5SxCGBYNkdeSprI5TSHA-6" target="5SxCGBYNkdeSprI5TSHA-13">
          <mxGeometry relative="1" as="geometry" />
        </mxCell>
        <mxCell id="5SxCGBYNkdeSprI5TSHA-59" value="0..*" style="text;html=1;strokeColor=none;fillColor=none;align=center;verticalAlign=middle;whiteSpace=wrap;rounded=0;" vertex="1" parent="eb_uJr6ZrpkrWKmLd1Z1-1">
          <mxGeometry x="253" y="73" width="60" height="30" as="geometry" />
        </mxCell>
        <mxCell id="5SxCGBYNkdeSprI5TSHA-60" value="0..*" style="text;html=1;strokeColor=none;fillColor=none;align=center;verticalAlign=middle;whiteSpace=wrap;rounded=0;" vertex="1" parent="eb_uJr6ZrpkrWKmLd1Z1-1">
          <mxGeometry x="445" y="73" width="60" height="30" as="geometry" />
        </mxCell>
        <mxCell id="5SxCGBYNkdeSprI5TSHA-61" value="is made for" style="text;html=1;strokeColor=none;fillColor=none;align=center;verticalAlign=middle;whiteSpace=wrap;rounded=0;" vertex="1" parent="eb_uJr6ZrpkrWKmLd1Z1-1">
          <mxGeometry x="500" y="99" width="100" height="30" as="geometry" />
        </mxCell>
        <mxCell id="5SxCGBYNkdeSprI5TSHA-62" value="" style="triangle;whiteSpace=wrap;html=1;fillColor=#000000;direction=west;" vertex="1" parent="eb_uJr6ZrpkrWKmLd1Z1-1">
          <mxGeometry x="490" y="105" width="20" height="20" as="geometry" />
        </mxCell>
        <mxCell id="5SxCGBYNkdeSprI5TSHA-64" value="is used in" style="text;html=1;strokeColor=none;fillColor=none;align=center;verticalAlign=middle;whiteSpace=wrap;rounded=0;" vertex="1" parent="eb_uJr6ZrpkrWKmLd1Z1-1">
          <mxGeometry x="205" y="103" width="60" height="30" as="geometry" />
        </mxCell>
        <mxCell id="5SxCGBYNkdeSprI5TSHA-65" value="" style="triangle;whiteSpace=wrap;html=1;fillColor=#000000;" vertex="1" parent="eb_uJr6ZrpkrWKmLd1Z1-1">
          <mxGeometry x="268" y="106" width="20" height="20" as="geometry" />
        </mxCell>
        <mxCell id="5SxCGBYNkdeSprI5TSHA-69" value="0..*" style="text;html=1;strokeColor=none;fillColor=none;align=center;verticalAlign=middle;whiteSpace=wrap;rounded=0;" vertex="1" parent="eb_uJr6ZrpkrWKmLd1Z1-1">
          <mxGeometry x="330" y="140" width="60" height="30" as="geometry" />
        </mxCell>
        <mxCell id="5SxCGBYNkdeSprI5TSHA-71" value="undertakes" style="text;html=1;strokeColor=none;fillColor=none;align=center;verticalAlign=middle;whiteSpace=wrap;rounded=0;" vertex="1" parent="eb_uJr6ZrpkrWKmLd1Z1-1">
          <mxGeometry x="382" y="219" width="60" height="30" as="geometry" />
        </mxCell>
        <mxCell id="5SxCGBYNkdeSprI5TSHA-72" value="" style="triangle;whiteSpace=wrap;html=1;fillColor=#000000;direction=north;" vertex="1" parent="eb_uJr6ZrpkrWKmLd1Z1-1">
          <mxGeometry x="402" y="199" width="20" height="20" as="geometry" />
        </mxCell>
      </root>
    </mxGraphModel>
  </diagram>
</mxfile>
